<?xml version="1.0" encoding="UTF-8"?>
<svg id="a" data-name="Camada 1" xmlns="http://www.w3.org/2000/svg" viewBox="0 0 1545.3 776.97">
  <defs>
  </defs>
  <path class="b" d="M744.11,355.68c23.28-13.87,70.48,4.52,83.63-21.95,31.07-72.03,68.27-100.65,45.14,4.38,18.16-.89,119.46-14.95,66.22-1.44-98.43,17.55-67.33,8.41-120.25,98.9-14.78,19.96-29.34,99.31,8.15,50.62,3.89-16.17,39.64-80.24,28.07-30.55,21.19-42.78-7.17,26.89-13.78,32.77,17.15,2.48,26.59-14,36.6-24.69,60.38-78.07,25.14,90.91,69.93,1.41,4.75,9.15-8.27,26.79-11.13,37.53-35.28,37.29-20.74-75.54-46.37-34.86-15.09,10.86-36.56,46.01-56.16,31.02-16.09,14.17-13.7,6.17-2.65,19.22,12.84,26.67-12.58,56.24-18.06,82.81,10.24-20.24,20.54-40.45,24.6-64.52,.65,49.26-37.24,90.89-67.53,126.4,1.99-1.23,3.98-2.46,6.47-4-19.84,26.25-50.69,48.57-79.01,59.72-3.37,49.3,21.4,59.08,59.2,30.2-1.33,1.22-2.59,2.38-3.85,3.53,52.43-28.46,25.18-25.91,77.05-62.21,38.58-33.62,47.85-33.66,55.21,18.69,5.79,29.35,34.89-2,36.59-18.79-34.12-8.48-23.66-53.16-13.29-76.87,50.28-52.65,22.01,80.38,32.37,40.78-.46,16.9,.98,17.92,15.31,4.72,29.63-32.94,52.24-62.93,57.51,3.59,14.13-11.33,21.8-35.24,39.97-45.28,22.33-4.72,14.54,38.71,45.33,25.82-18.15,30.6-34.87,12.54-42.09-13.78-33.41,18.74-53.67,117.7-56.34,17.58-.76,1.79-1.07,2.52-1.33,3.13-1.67-34.97-38.92,27.52-57.13,33.32-34.97,56.51-63.56,81.97-76.16-4.94-11.59,7.18-121.71,85.09-81.97,61.59-95.1,92.27-121.6-5.11-72.62-86.94,21.47-41.78,44.11-83.5,71.33-121.75,12.27-16.4,5.21-40.86,9.83-60.35-19.07,16.5-33.49,49.68-61.98,50.18,58.44-43.09,77.1-95.67,87.72-164.89-30.63,9.69-80.39-3.39-98.78,21.88-40.06-18.58,10.63-29.75,6.56-15.94,4.08-4.82,36.03-2.31,17.69-6.06Zm111.85-60.08c-13.75,14.07-32.1,57.98,2.55,44.84,10.74-14.63,9.97-34.98,10.97-53.32-7.46,1.26-7.36,7.48-13.52,8.48Zm-136.01,405.06c17.43-1.75,36.99-23.95,49.75-36.26-14.39,4.31-25.22,17.96-38.19,25.8-25.18,14.73,24.57-22.12,32.75-30.53,29.23-32.59,82.99-93.5,56.48-137.99-33.46-11.71-45.31,46.26-62.64,66.84-8.03,21.29-81.05,125.64-38.16,112.13Zm209.87-86.31c-18.38,9.45-31.25,23.8-26.45,45.56,2.61-7.63,4.95-14.44,7.28-21.25-7.64,23.04,17.65,58.84,21.01,18.08,.25,1.31,.5,2.61,.75,3.92,1.75-16.49,.06-29.08-2.59-46.31Zm-75.74-261.64c-30.89-9.23-27.79,32.49-34.6,53.12,10.64-1.42,23.33-39.65,34.6-53.12Zm30.02,110.85c-3.04-.13-13.86,12.17-12.27,15.12,4.09-5.04,8.18-10.08,12.27-15.12Zm46.71,228.14c-2.4-2.76-7.8,4.38-5.86,6.9,3.98,1.57,4.26-4.53,5.86-6.9Z"/>
  <path class="b" d="M739.67,265.4c12.97-9.2,27.57-26.13,42.71-37.26,21.85-10.12,37.76-24.07,51.63-43.77,13.6-12.97,32.18,6.13,30.59,20.39-1.78,11.42-10.79,22.18-11.52,34.39,6.48-5.23,6.21-19.66,11.01-22.11-7.24,25.68-3.54,19.39,14.56,5.55,50.1-42.17,39.74-23.31,52.87,23.58,17.44-16.66,40.59-58.45,67.2-33.18,5.93,6.06,24.19,21.78,27.42,7.49-1.51-9.34-9.82-13.87-8.39-24.47,27.97,3.65,25.78,56.04-6.65,45.24-13.33-3.9-20.85-21.78-33.68-23.23-41.72,30.98-57.1,81.18-66.04-6.18-21.6,17.73-49.79,30.78-66.69,53.63-28.81,51.14-59.71,47.01-40.35-14.05,29.67-71.13-44.22,18.36-69.23,25.7-24.45-2.66,33.04-101.8,39.26-119.26-7.85-1.26-18.88,6.56-28.84,8.84,7.96,1.54-8.59,13.85-14.4,4.42,1.93-25.23,51.8-16.45,58.72-43.33,16.16-19.61,70.46-169.21,82.8-116.66-.79,7.53-12.56,2.07-14.7,8.65-17.55,35.89-33.91,71.77-54.31,105.81-8.72,19.82,47.26-6.16,58.68,16.99-3.64,11.14-17.94-5.19-27.92-.22-10.91,3.29-26.86-.81-35.22,7.33-32.04,27.28-41.08,77.12-59.51,115.71Zm114.67-61.13c-.93-7.65-6.06-10.45-13.07-11.64,.05,4.24-.61,7.7-6.08,5.45-3.54,1.49-8.16,18.97-9.27,8.93-4.62,10.25,.75,33.26,14.31,36.56,5.86-4.14,18.96-39.54,14.11-39.29Zm-18.83,54.06c-23.02-28.67-27.25,7.12-24.47,30.22,10.35-9.13,19.67-18.41,24.47-30.22Zm-70.03-11.17,78.94,11.51c-4.72-2.5-12.74,10.02-10.71,14.19,5.15-1.81,6.98-10.03,10.71-14.19Zm35.67-33.09c-4.99-.48-10.85,9.14-16.01,12.2,4.71,1,10.93-9.25,16.01-12.2Z"/>
  <path class="b" d="M79.91,445.85c8.39-28.3,34.59-54.43,41.38-81.87-23.45,11.34-45.93,46.2-74.19,34.43-15.96-5.63,1.15-4.97,5.6,.24,19.15,1.98,33.74-19.03,49.98-27.34,35.21-20.44-21.18-20.94-38.78-13.51,26.44-32.15,60.8,4.37,73.13-17.28,13.42-21.32,21.84-53.17,43.15-66.09-7.45-2.82,1.41-6.88,2.87-10.99,3.79-6.14,7.57,.1,12.06,2.41-3.38,4.61-7.97,7.85-9.58,13.7-34.07,53.95-1.11,13.36,21.71-7.89,21.27-29.37,96.12-82.68,74.89-120.09-75.29-33.91-180.6,28.8-240.95,74.6-7.59,6.37-46.47,45.47-31.26,18.36,62.19-66.39,151.03-110.13,242.21-114.25-.77,.31-1.53,.62-3.45,1.39,142.76,8.96-62.49,163.48-94.39,203.35-21.63,28.26-11.88,24.99,6.16,50.65,15.1,16.92,36-14.95,50.34-22.16,19.13-20.09,32.96,8.91,49.15,19.03,20.57-2.77,44.24-28.34,39.19-50.58-23.35,5.59-30.79-15.63-61.28,15.96,19.75-54.66,84.39-32.64,66.77-1.51-14.91,19.33,5.57,6.23,4.73-7.61,2.35,14.21-11.1,32.27-22,42.53-39.37,38.02-42.38-12.26-66.9-13.51-16.06,13.79-31.89,27.89-52.23,34.96-14.64-.67-22.44-19.3-30.22-29.9-21.79,.36-29.47,61.18-56.14,73.9,.21-1.89,.42-3.77,.77-6.97-1.27,2.78-2.01,4.4-2.75,6.03Zm111.97-153.31c-4.08,.38-17.13,12.58-17.18,16.76,5.73-5.58,11.46-11.17,17.18-16.76Zm-86.31,119.1c-4.7,.38-6.37,12.12-9.81,16.5,4.41-1.59,6.35-11.93,9.81-16.5ZM251.24,236.85c-3.94-1.05-8.46,9.09-12.44,12.01,4.18,.28,8.38-8.95,12.44-12.01Z"/>
  <path class="b" d="M1358.11,642.19c-68.45,20.64-8.25-118.35,17.55-95.22,10.14,12.49-7.67,36.28-18.38,32.31-7.9,15.37-20.04,32.05-11.49,49.86-3.12-1.02-2.63-4.32-4.32-1.87,28.98,10.2,52.61-30.39,71.74-47.61,53.14-46.99,79.23-7.68,38.37,34.74,21.4-2.02,26.33-32.53,46.87-34.56,12.87,1.57,9.81,12.48,11.6,20.7,16.18-.22,27.85-27.74,14.9-37.92-10.28-8.29-21.47,3.53-32.59-2.42,12.96-6.36,31.28-20.1,42.86-7.4,1.81,1.98,3.73,3.91,3.73,3.91,14.65,18.05,1.85,44.95-17.58,55.24-24.09,15.35-24.16,5.48-30.57-13.92-5.22,11.4-10.52,15.85-20.78,22.76-2.42,1.63-16.75,7.79-28.16,6.05-6.84-1.05-41.33,21.64-39.81-13.5-7.51,5.63-40.47,27.17-43.96,28.85Zm100.66-67.59c-23.29-4.9-50.77,19.08-44.73,43.19,19.52,4.08,52.42-23.8,44.73-43.19Z"/>
  <path class="b" d="M418.99,564.71c11.37-12.27,28.52-21.43,36.66-35.64-39.59,40.71,34.72-44.18,48.74-61.25-39.98,58.69,43.47-51.13,51.37-75.26,11.05-8.1,13.79-22.47,24.89-30.13,18.09-16.8,34.23-24.06,.4-7.53,5.18-7.4,25.56-23.75,23.08-4.16-16.38,27.83-43.05,50.96-56.99,80.55-33.7,81.66-55.56,188.04-101.86,254.89-.5,17.39-12.7,31.03-20.92,45.49-14.34,19.96-18.16-36.88,.98-19.15,39.47-83.84,76.72-174.97,102.02-263.02-23.82,25.97-109.34,166.19-145.64,129.73-7.74-8.17-12.16,13.52-17.78,18.53-12.68,18.1-44.65,75.94-66,72.99,11.13-7.42,22.79-13.81,29.24-26.14-5.7,.29-8.35,4.47-12.11,6.18-8.09,.37-12.98,6.7-15.98,12.89-6.1-10.63,10.26-12.73,16.66-16.93,12.29-13.38,23.33-29.23,34.25-44.02,14.84-20.43,23.91-45.02,37.77-65.47,.27,6.62-6.19,17.69,2.27,4.54,5.51-5.83,1.33,6.98-.27,9.55-19.46,54.72,64.73-8.82,29.22,13.34Zm7.05,151.08c-6.23,7.59,3.28,1.95-8.73-4.02m46.67-72.49"/>
  <path class="b" d="M349.57,308.26c-5.43,.74-8.64-1.5-9.41-7.01,6.31-4.92,14.58-6.46,16.33-3.36,5.63-3.97,10.86-8.86,17.02-11.74,10.73-5.01,16.64-2.74,23.59,8.05,4.29,6.67,2.79,14,2.6,21.18-.06,2.22-.53,4.42-.97,7.93,5.21-5.52,9.32-10.4,13.98-14.67,6.05-5.54,12.27-10.97,18.93-15.75,9.26-6.64,19.05-12.53,28.5-18.93,3.29-2.23,6.99-3.23,9.92-.95,2.32,1.8,4.19,5.24,4.67,8.2,2.57,16.01-2.83,30.7-8.1,45.42-1.53,4.27-2.1,8.89-3.07,13.17,2.47-.52,4.76-.33,6.02-1.38,3.85-3.22,7.71-6.58,10.83-10.48,11.86-14.84,24.04-29.38,40.02-39.99,4.22-2.8,8.37-6.48,14.47-5.36,6.89,1.26,10.73,4.25,10.96,11.09,.18,5.39-.73,10.84-1.37,16.23-.31,2.6-1.1,5.15-1.72,7.92,10.82-3.37,14.9-13.35,21.82-20.31,4.14-4.16,7.74-8.9,12.15-12.72,1.65-1.43,5.84-2.23,7.24-1.17,2.84,2.15,6.24,4.46,6.32,9.17,.03,1.87,2.85,3.55,3.36,5.58,1.05,4.15,1.4,8.47,2.05,12.83,5.6,.73,6.04,1.24,4.13,6.7-.68,1.96-1.83,3.89-3.19,5.46-2.08,2.4-6.77,1.49-8.59-1.18-4.2-6.16-7.38-12.6-7.16-20.33,.03-.97-.86-1.97-1.57-3.49-11.06,11.87-21.89,23.32-32.5,34.97-4.43,4.86-10.15,4.49-13.11-1.46-2.04-4.1-3.12-8.17-2.01-13.14,1.28-5.72,.9-11.81,1.33-17.73,.14-1.92,.57-3.82,1.1-7.18-3.47,1.09-6.42,1.61-8.98,2.9-19.2,9.7-32.82,26-47.38,41.04-5.24,5.41-8.48,12.74-12.84,19.04-2.32,3.35-4.95,6.58-9.66,6.56-.08-3.77-.9-7.7-.1-11.27,1.82-8.15,4.49-16.11,6.68-24.18,.3-1.11-.19-2.43-1.51-3.87-1.4,3.73-2.94,7.42-4.18,11.21-1.31,4.01-2.79,8.04-3.38,12.18-.58,4.02-.13,8.18-.13,12.17-4.74-4.67-1.86-10.14-1.4-15.34,.32-3.56,.93-7.13,1.81-10.59,.73-2.87,2.18-5.55,3.08-8.39,1.82-5.75,3.74-11.49,5.12-17.35,1.06-4.49,1.21-9.18,2.03-13.73,.62-3.4,1.68-6.71,1.7-11.11-5.97,3.68-12.37,6.81-17.81,11.15-11.57,9.23-22.77,18.95-33.85,28.77-3.27,2.9-5.73,6.73-8.4,10.26-9.32,12.31-18.52,24.71-27.88,36.99-2.77,3.63-5.93,6.95-9.07,10.59-2.25-.87-4.5-1.73-6.76-2.6-1.04-6.48,2.48-10.92,6.2-15.75,5.05-6.55,8.92-14.01,13.62-20.85,6.42-9.35,6.7-20.27,7.65-30.8,.43-4.71-1.84-9.92-3.78-14.52-1.56-3.68-5.07-3.32-7.92-1.07-8.17,6.46-17.45,10.5-27.48,12.99h.06Zm230.64-21.12c-4.59,4.14-9.18,8.27-13.77,12.41-.19-.18-.38-.35-.56-.53"/>
  <path class="b" d="M1226.62,620.55c23.07,21.04,47.74-44.56,63.87-22.33,2.74,7.47-1.39,20.47,5.81,24.69,8.38,2.8,7.05,21.58-4.14,18.53-14.43-1.59-6.27-34.68-21.99-21.39-15.36,10.27-34.61,28.01-52.06,11.34-1.76-1.54-3.26-.7-5.77,1.98-46.37,61.56-101.89,8.74-61.02-48.4,7.75-13.03,37.84-46.74,49.11-23.53,5.81-7.76-5.62,11.46-4.24,14.52-3.09,2.98-6.45,5.35-.89,10.13-7.92-4.35-3.81,11.26-5.94,16.68-4.38-6.82-5.47-13.75-3.68-21.27,4.05,7.11,2.24-26.53-13.94-1.83-7.55,13.41-26.38,27.66-20.24,44.92-.1,12.96,4.61,27.36,20.75,22.95,35.56-5.44,36.61-42.85,57.88-63.06,25.39-5.61,2.35,26.58-3.49,36.08Z"/>
  <path class="b" d="M987.9,404.77c-3.66,.27-8.34-.72-8.12-5.07-1.05-13.71,36.89-14.18,47.89-18.63,12.89-2.56,30.06,4.92,29.56,20.15-1.41,12.71-14.85,19.76-19.73,32.18,32.38-11.04,92.16-12.06,77.15,38.33-13.22,18.97-48.81,46.19-66.51,18.15-3.79-13.32-12.56-3.24-21.92,.13-12.18,5.66-23.28,3.32-28.64-9.71-5.14-29.61,34.26-52.21,46.49-77.79-3.06-17.65-47.8-4.53-56.16,2.25Zm84.35,31.17c-15.77,4.3-37.5-1.31-49.7,11.04-7.74,11.11-26.25,37.7,2.26,29.32,44.67-26.79,21.34,12.3,47.39,12.15,39.22-10.05,43.5-49.24,.05-52.51Z"/>
  <path class="b" d="M592.8,498.88c13.05,16.35,1.96,35.82,.21,54.47,11.85-5.29,19.42-17.62,30.87-22.56q-7.41,7.41-7.02,10.84c8.98-9.04,29.61-30.11,8.17-12,27.32-37.18,53.59-49.45,46.97,11.44,3.36-14.75,29.27-54.62,38.14-37.73,12.81-.26,4,15.37,14.41,17.55,2.88,5.28,10.82,6.57,16.58,2.6-4-.12-14.42,2.45-10.21-2.82,7.39,6.37,18.22-5.41,25.2-9.9-64.6,74.88-30.79-61.97-80.17,40.79-4.53,6.6-5.25,19.44-14.53,20.08,.8-10.51,2.81-36.57-2.34-14.44-1.23,3.39,2.63,7.82-2.39,10.78-.49-20.58,10.22-39.95,3.25-60.53-32.27,25.66-64.94,68.32-105.75,78.45,30.82-20.01,2.52-13.14-5.05-38.4,4.92-10.43,15.48-69.98,36.86-48.81,8.48,7.38-3.05,8.73-8.49,7.79-5.17,5.75-9.31,22.98-15.16,9.49-.2,1.84-.42,3.83-.8,7.35-.44-2.87-.66-4.26-.88-5.65,.03,4.44-6.11,7.3-3.49,13.27,8.02-20.57-7.48,40.7,3.58,10.68,14.73,43.74,34.6-15.16,26.87-35.29m-6.27,50.11,25.74-1.06"/>
  <path class="b" d="M676.65,290.97c-.98,1.19-1.76,2.69-2.99,3.5-2.94,1.94-4.66,4.1-6.03,7.74-2.22,5.89-5.61,12.09-10.26,16.13-6.12,5.32-8.79,12.43-13.07,18.67-3.59,5.25-7.08,10.57-10.68,15.81-1.66,2.41-3.35,5.38-6.95,2.97-3.19-2.13-4.15-5.19-2.37-8.77,4.2-8.45,8.51-16.85,12.68-25.32,6.02-12.21,12.03-24.42,17.91-36.7,6.17-12.89,12.18-25.85,18.23-38.8,5.58-11.94,11.12-23.9,16.65-35.86,8.31-17.97,16.76-35.87,24.84-53.94,6.17-13.79,11.7-27.87,17.87-41.66,3.69-8.26,8.23-16.13,12.01-24.36,1.61-3.5,2.36-7.41,3.31-11.19,2.09-8.34,7.6-11.49,14.77-10.59,1.51,2.44,3.15,4.38,3.95,6.61,.63,1.76,.45,3.91,.24,5.85-.16,1.5-.94,2.93-1.52,4.63-.93,.3-2.37,.76-4,1.28-.5-2.51-1.04-5.17-1.71-8.53-.64,1.64-1.22,2.78-1.52,3.99-3.58,14.05-9.55,27.14-15.91,40.1-2.84,5.8-4.98,11.94-7.45,17.92-.13,.3-7.59,18.83-9.21,22.35-4.51,9.8-8.9,19.65-13.39,29.47-9.79,21.41-19.42,42.89-29.48,64.16-6.83,14.44-14.43,28.52-21.4,42.91-2.88,5.95-5.03,12.26-7.51,18.41l1.15,.67,19.56-29.03c.76,.52,1.52,1.04,2.27,1.57Z"/>
  <path class="b" d="M977.01,511.6c5.73-35.75-2.12-74.49-4.52-106.46,28.11-.7,15.54,84.95,21.82,96.21,2.24,12.33-13.28,30.77-17.3,10.25Z"/>
  <path class="b" d="M1538.35,501.13c-3.71,14.85-20.82,16.04-31.38,23.99-16.46,5.32-39.43-3.2-44.26-.6,6.34,3.64-3.55,8.41-6.07,13.55-8.87-3.07-18.37-13.68-6.23-20.26,16.71-14.07,36.94,.12,54.88-9.88,10.82-4.96,21.01-14.06,33.07-6.8Z"/>
  <path class="b" d="M1336.11,657.56c6.84,5.05,2.29,11.86,4.72,18.09-.64-21.33,5.41,3.82-1.65,11.23-8.2,10.1-11.72,43.23-27.89,35.13-2.46-21.29,16.52-44.34,24.82-64.44Z"/>
  <path class="b" d="M1287.98,580.15c-11.63-15.94,13.45-47.42,31.94-39.95-13.09,11.82-16.28,31.06-31.94,39.95Z"/>
  <path class="b" d="M554.19,585.91c-.51,3.46,2.66,3.29,4.34,3.65,2.09,.45,4.45-.36,6.7-.64-3.92,7.09-12.1,11.55-19.97,10.82-5.44-.5-7.72-4.81-9.57-8.91-4.28-9.51-.54-26.5,8.71-33.29,.84-.62,1.34-1.7,2.66-3.44-.75,8.91-1.36,16.76-2.07,24.6-.49,5.43,1.73,7.74,6.87,7.09,.8-.1,1.64,.15,2.47,.24,0,0-.13-.13-.13-.13Z"/>
  <path class="b" d="M64.05,357.65c-1.43,6.37-5.56,10.89-9.79,15.61-2.09,2.33-2.31,6.37-3.29,9.67-.53,1.79-.6,5.03-1.39,5.2-2.22,.46-4.93,.2-7.02-.75-3.44-1.56-3.29-1.88-3.65,2.23-1.01-.64-2.8-1.15-2.93-1.93-2.22-13.8,8.26-29.06,21.8-31.84,1.37-.28,2.92-.05,4.32,.26,.72,.16,1.3,1.01,1.94,1.55Z"/>
  <path class="b" d="M633.02,154.78c6.85,1.63,9.81,5.67,13.58,9.2,4.63,4.33,1.78,9.32,4.18,13.98-1.25,0-2.27,.16-3.21-.03-2.74-.54-4.63,.46-6.25,2.69-.69,.95-2.46,2.12-3.15,1.82-1.01-.43-1.88-2.03-2.1-3.26-.57-3.21-.59-6.52-1.14-9.74-.35-2.06-1.57-3.98-1.83-6.03-.33-2.63-.08-5.33-.08-8.64Z"/>
  <path class="b" d="M970.17,388.71c.59-4.68-2.8-8.1-3.85-12.24-.56-2.21-1.3-6.11-.44-6.6,2.28-1.29,5.77-2.22,8.06-1.36,4.36,1.63,7.48,9.31,6.4,13.47-.12,.45-.8,.75-1.23,1.12-1.38,1.17-2.76,2.34-4.15,3.51-.61,.36-1.22,.72-1.84,1.07-.98,.34-1.97,.68-2.95,1.02Z"/>
  <path class="b" d="M0,278.34c.39-6.28,.73-11.91,1.1-17.83,3.18,.79,4.89,1.21,6.16,1.53,1.2,6.12,2.35,12,3.83,19.54-4.59-1.34-7.55-2.21-11.09-3.24Z"/>
  <path class="b" d="M549.29,547.36c-3.32,2.38-6.65,4.77-10.59,7.6-.63-3.88-1.15-7.11-1.82-11.23,2.87-3.81,8.18-4.61,14.01-1.14-.59,1.65-1.18,3.3-1.76,4.94,0,0,.16-.17,.16-.17Z"/>
  <path class="b" d="M508.02,295.84c-7.92,7.06-16.12,13.84-23.64,21.3-3.71,3.69-6.18,8.63-9.18,13.03-.78,1.14-1.21,2.66-2.24,3.42-.75,.56-2.21,.16-3.36,.19,.22-.96,.14-2.2,.72-2.84,7.21-8,14.38-16.04,21.86-23.78,3.96-4.09,8.49-7.64,12.8-11.38,.61-.53,1.45-.81,2.18-1.21,.29,.42,.57,.85,.86,1.27Z"/>
  <path class="b" d="M50,499.63c2.68-4.73,5.27-9.51,8.08-14.17,1.06-1.76,2.62-3.21,3.95-4.81-2.09,4.59-4.15,9.2-6.27,13.78-.84,1.81-1.79,3.57-2.69,5.35,.45,.2,.91,.41,1.36,.61,3.8-6.7,7.59-13.41,11.44-20.09,.53-.91,1.37-1.64,2.06-2.45-.46,1.69-.6,3.56-1.43,5.04-3.56,6.37-7.2,12.71-11.08,18.89-1.89,3.01-4.37,3.51-6.56,0,.38-.72,.76-1.44,1.15-2.16Z"/>
  <path class="b" d="M73.75,468.79c.83-1.92,1.46-3.95,2.52-5.73,3.12-5.2,6.41-10.29,9.64-15.43,.39,.38,.77,.77,1.16,1.15-3.48,6.2-6.9,12.43-10.5,18.56-.45,.77-1.86,.98-2.82,1.45Z"/>
  <path class="b" d="M50,499.63c-.38,.72-.76,1.44-1.15,2.16,.01-1.94-.62-4.2,.14-5.78,3.38-6.97,7.15-13.75,10.85-20.56,.36-.67,1.24-1.06,1.88-1.58-3.5,6.7-7.08,13.36-10.43,20.14-.83,1.68-.88,3.74-1.29,5.62Z"/>
  <path class="b" d="M199.98,290.54c3.95-4.27,7.89-8.54,11.84-12.81-.61,4.98-6.53,11.4-11.84,12.81Z"/>
  <path class="b" d="M87.07,448.78c-.39-.38-.77-.77-1.16-1.15,1.31-2.95,2.63-5.9,3.94-8.85,1.07-.33,2.14-.66,3.21-1-2,3.67-4,7.33-5.99,11Z"/>
  <path class="b" d="M795.29,640.02c-4.83,5.26-9.65,10.52-14.48,15.78-.33-.28-.65-.57-.98-.85,4.83-5.29,9.67-10.58,14.5-15.86,.32,.31,.64,.62,.96,.93Z"/>
  <path class="b" d="M349.51,308.27c2.09,.74,4.18,1.49,6.79,2.41-3.49,1.98-6.5,3.87-10.19,1.29,1.15-1.24,2.3-2.48,3.45-3.71,0,0-.05,.01-.05,.01Z"/>
  <path class="b" d="M181.01,297.6c-.38,.39-.77,.77-1.15,1.16-.15-.99-.77-2.25-.37-2.93,2.13-3.64,4.51-7.13,7.65-9.98-2.04,3.92-4.09,7.84-6.13,11.75Z"/>
  <path class="b" d="M987.9,404.77c.74-.34,1.49-.67,2.23-1.01,.11,1.24,.22,2.48,.33,3.72-.27,.2-.55,.4-.82,.6-.58-1.1-1.16-2.21-1.74-3.31Z"/>
  <path class="b" d="M1379.04,630.67c.37-.29,.74-.58,1.11-.87-.37,.29-.74,.58-1.11,.87Z"/>
  <path class="b" d="M748.88,683.82c-2.98,1.81-5.97,3.61-8.95,5.42l-.8-1.02c3.43-2.51,6.77-5.17,10.34-7.47,1.96-1.26,4.32-1.89,6.5-2.81-2.37,1.96-4.73,3.92-7.1,5.88Z"/>
  <path class="b" d="M719.95,700.66c5.08-3.09,10.15-6.19,15.23-9.28,.25,.42,.5,.84,.75,1.26-4.94,3.06-9.88,6.11-14.82,9.17-.39-.38-.77-.77-1.16-1.15Z"/>
  <path class="b" d="M1537.96,555.8c.38,.34,.77,.68,1.15,1.02-.32-.05-.64-.09-.97-.11-.02-.35-.03-.69-.05-1.04l-.14,.13Z"/>
  <path class="b" d="M1534.89,552.71c-.27,.39-.54,.77-.81,1.16,.27-.39,.54-.77,.81-1.16Z"/>
  <path class="b" d="M1538.1,555.67c.02,.35,.03,.69,.05,1.04h-1.23c.39-.35,.79-.69,1.18-1.04Z"/>
  <path class="b" d="M304.86,657.72c1.41,.36,2.82,.72,4.23,1.08-.39,.95-.77,1.9-1.16,2.85,.02,.74,.03,1.49,.05,2.23-1.28,.96-2.56,1.92-3.83,2.88-4.38-2.07-.4-6.26-2.28-8.96,.74-.03,1.48-.06,2.23-.08,0,0,.39,.03,.39,.03l.39-.03Z"/>
  <path class="b" d="M307.97,663.89c-.02-.74-.03-1.49-.05-2.23,.39,.39,.79,.78,1.18,1.18l-1.14,1.05Z"/>
  <path class="b" d="M304.86,657.72l-.39,.03s-.39-.03-.39-.03c-.08-.28-.1-.56-.07-.84,.28,.28,.56,.56,.84,.85Z"/>
  <path class="b" d="M61.89,480.83c1.15-2.65,2.06-5.44,3.51-7.92,4.91-8.44,10-16.77,15.07-25.11,.31-.51,1.03-.77,1.56-1.15-6.71,11.39-13.42,22.79-20.14,34.18Z"/>
</svg>