<?xml version="1.0" encoding="UTF-8"?>
<svg id="b" data-name="Camada 2" xmlns="http://www.w3.org/2000/svg" viewBox="0 0 1702.16 1854.75">
  <defs>
    <style>
      .d, .e {
        fill: aqua;
      }

      .e {
        stroke: #19191f;
        stroke-miterlimit: 10;
        stroke-width: 5px;
      }
    </style>
  </defs>
  <g id="c" data-name="Camada 1">
    <path class="d" d="M0,559.61c2.99-14.06,5.17-28.35,9.11-42.14,12.04-42.18,37.48-75.65,69.17-105.08,32.3-30,71.61-48.95,109.34-70.3,79.69-45.09,159.16-90.6,239.78-133.98,105.59-56.81,211.97-112.18,318.54-167.15,27.56-14.22,57.14-24.5,85.69-36.83,13.92-6.01,27.64-5.18,41.09,.66,36.01,15.64,72.61,30.13,107.63,47.76,73.83,37.17,147.3,75.12,219.99,114.46,91.29,49.41,181.8,100.26,272.34,151.03,42.23,23.68,85.14,46.59,125.23,73.57,49.65,33.41,85.4,78.9,99.29,138.75,3.04,13.08,4.7,26.78,4.72,40.2,.28,237.7,.29,475.4,.11,713.09-.03,37.85-14.14,71.15-35.81,101.55-25.92,36.35-59.88,62.95-98.51,84.99-97.27,55.51-193.25,113.32-290.86,168.21-102.83,57.82-206.73,113.74-310.65,169.59-27.9,15-57.58,26.7-86.4,39.98-18.13,8.36-36.32,9.43-54.62,.69-46.53-22.24-93.55-43.52-139.43-67.04-50.11-25.68-99.42-52.96-148.59-80.42-63.72-35.59-127.17-71.69-190.36-108.21-80.1-46.3-160.62-91.95-239.43-140.38-50.23-30.86-85.82-75.37-102.19-133.34C2.72,1310.6,1.69,1301.52,0,1292.62c0-244.34,0-488.68,0-733.01Zm1612.34,366.8c0-116.15,.14-232.3-.22-348.45-.04-11.79-1.54-24.06-5.04-35.27-12.55-40.15-41.27-67.24-76.2-87.85-43.88-25.89-88.52-50.48-132.93-75.46-52.64-29.61-105.22-59.33-158.13-88.44-49.34-27.15-98.98-53.75-148.68-80.24-76.61-40.84-153.02-82.11-233.3-115.49-3.78-1.57-9.42-1.49-13.16,.16-26.17,11.5-52.42,22.92-77.98,35.69-50.11,25.02-100.07,50.37-149.57,76.58-56.71,30.03-112.91,61.04-169.23,91.82-36.71,20.07-73.31,40.35-109.8,60.83-41.97,23.55-83.86,47.24-125.59,71.21-26.13,15.01-53.56,28.08-75.72,49.28-27.06,25.89-46.35,55.45-46.34,94.64,.04,234.83,.01,469.66,.06,704.48,0,4.07,.37,8.19,1.11,12.19,5.34,29.17,22.48,51.78,44.49,69.34,21.72,17.33,46.18,31.41,70.18,45.66,54.64,32.42,109.65,64.24,164.69,95.99,56.39,32.54,112.81,65.03,169.56,96.94,47.99,26.98,96.09,53.8,144.82,79.38,52.3,27.45,105.33,53.5,158.27,79.7,4.1,2.03,10.76,2.18,14.9,.29,29.14-13.32,58.46-26.41,86.73-41.44,66.12-35.12,131.83-71.01,197.42-107.12,45.74-25.18,91.21-50.87,136.43-76.98,76.26-44.05,152.25-88.58,228.3-132.99,25.5-14.89,51.92-28.34,71.96-51.17,20.35-23.18,33.72-47.88,33.41-80.51-1.08-114.25-.42-228.51-.42-342.77Z"/>
    <path class="e" d="M738.55,1167.54c-2.24,.27-2.54-1.04-2.64-2.89-.48-8.6-1.1-17.2-1.62-25.8-1.38-23-2.74-46.01-4.11-69.01,3.46-1.39,6.98-.37,10.48-.24,.68,.09,1.34,.26,1.99,.47,9.62,.53,19.23,0,28.85,.1,8.25,.17,16.52-.52,24.75,.47,13.41,1.7,26.84,1.02,40.27,.39,.99-.27,2-.42,3.01-.5,3.44-.28,6.92,.26,10.35-.48,.58-.2,1.18-.34,1.78-.45,23.02-2.6,43.87-10.8,62.62-24.36,4.9-3.54,8.73-8.25,13-12.48,1.34-1.33,2.07-3.63,4.68-2.98,1.65,12.99,1.62,26.09,2.39,39.14,1.39,23.5,2.47,47.01,3.67,70.52,.49,9.65,.97,19.29,1.39,28.94,.08,1.86,.76,4.32-2.6,4.07-15.03-5.09-30.47-8.68-45.94-12.1-13.14-2.9-26.39-5.3-39.82-6.35-3.79-.3-5.13-1.92-5.8-5.33-1.57-8.08-3.44-16.09-5.13-24.15-.37-1.75-.73-3.47-2.18-6.11,0,9.47,0,17.88,0,26.3,0,7.99,0,7.88-7.91,7.64-30.87-.93-60.83,3.96-89.92,14.28-.55,.2-1.02,.62-1.53,.93Z"/>
    <path class="e" d="M1080.85,1213.44c-2.05-1.51-2.03-3.87-2.27-6.01-3.14-28.17-6.55-56.3-8.99-84.55-1.85-21.44-3.83-42.87-3.57-64.42,.03-2.41,.22-4.81,.33-7.22,2.85-1.19,4.52,.9,6.3,2.39,14.85,12.46,32.47,17.01,51.31,17.82,19.08,.82,38.05-.83,56.98-3,2.2-.25,4.4-.62,6.37,.83,1.34,1.89,.89,3.86,.06,5.73-3.46,7.71-7.16,15.32-12.66,21.83-3.14,3.71-6.51,7.19-12.23,6.11-2.88-.54-2.64,1.93-2.55,3.61,.32,6.01,1.01,12.01,1.7,17.99,2.11,18.35,3.95,36.68,4.55,55.2,.45,14.05,.77,28.09,.94,42.14,.02,1.99,.44,4.03-.56,5.92-15.35-1.35-30.56-3.78-45.7-6.56-13.36-2.45-26.67-5.2-40-7.82Z"/>
    <path class="e" d="M566.43,1048.1c.8,12.49-.62,24.94-.86,37.41-.69,36.64-1.66,73.27-2.76,109.9-.27,8.85-.67,17.7-.81,26.56-8.71,2.56-17.7,3.71-26.59,5.32-16.84,3.05-33.84,4.91-50.87,6.51-1.6,.15-3.21,.07-4.82,.09-1.38-1.38-1.72-3.17-1.75-4.99-.29-16.07-1.72-32.08-2.65-48.11-1.07-18.44-1.78-36.89-3.17-55.31-.93-12.43-.15-24.92-.43-37.37,1.21-4.55,5.41-4.33,8.73-5.09,13.92-3.16,27.81-6.45,41.29-11.2,14.64-5.16,28.92-11.09,40.43-22.05,1.14-1.09,2.41-2.2,4.26-1.67Z"/>
    <path class="e" d="M1166.55,1227.82c-.82-1.42-1.29-2.92-1.21-4.59,.08-1.61-.05-3.22,.02-4.83,.9-18.49-1.06-36.92-1.5-55.38-.23-9.67-1.66-19.46-2.94-29.16-1.32-10.08-2.93-20.2-2.82-30.44,.01-1.35-.4-2.82,.67-4,.39-.07,.89-.32,1.12-.16,5.56,3.71,6.34,3.57,11.19-.89,3.62-3.33,6.27-7.44,8.48-11.63,2.87-5.45,6.68-10.58,7.56-16.94,2.37-2.71,5.72-2.58,8.86-3.02,13.32-1.87,26.76-3.04,39.67-7.22,5.2-1.68,10.17-3.74,14.7-6.83,1.62-1.11,3.23-2.53,5.49-1.67,2.76,12.83,1.49,25.68-.44,38.4-5.71,37.68-16.73,74.05-27.86,110.38-2.89,9.42-6.12,18.72-8.94,28.16-.93,3.12-2.41,4.11-5.59,3.77-3.38-.36-6.83-.12-10.24-.14-9.13-.82-18.26-1.61-27.37-2.49-2.97-.29-5.92-.85-8.88-1.29Z"/>
    <path class="e" d="M472.56,1086.79c.35,.94,.8,1.85,1.02,2.82,.17,.77,.1,1.6,.07,2.41-.67,17.9,.61,35.77,1.44,53.62,.69,14.81,1.6,29.62,2.45,44.43,.84,14.61,2.49,29.17,2.19,43.83-21.22,2.1-42.43,1.41-63.64-.09-2.23-9.4-2.64-19.05-3.82-28.59-2.92-23.48-5.65-46.98-8.35-70.48-1.4-12.14-2.59-24.31-3.87-36.47,3.62-2.27,7.84-1.74,11.72-2.04,17.71-1.39,34.79-5.99,52.08-9.56,1.97-.41,3.97-.59,5.94-.99,1.09-.04,2.1,.14,2.77,1.13Z"/>
    <path class="e" d="M472.56,1086.79c-.74-.06-1.48-.11-2.22-.17-16.83,3.14-33.81,3.62-50.85,2.65-7.32-.42-14.33-2.19-20.9-5.41-6.75-3.31-12.83-15.01-11.82-22.34,.66-4.8,4.3-7.11,8.08-9.08,6.97-3.64,14.37-6.33,21.7-9.09,16.97-6.39,29.71-18.24,41.46-31.36,14.66-16.37,27.57-34.1,39.31-52.66,3.25-5.13,7.41-8.73,12.85-11.38,5.88-2.86,12.48-4.87,16.22-10.96,1.75-2.76,4.54-4.53,6.64-6.96,6.52-7.52,5.69-18.26-1.99-24.65-1.39-1.16-2.82-2.27-4.14-3.51q-6.33-5.95-14-1.93c-3.74,1.96-5.77,.91-6.69-3.64-.94-4.63-.8-9.49-3.05-14.88-2.81,4.36-2.82,8.64-3.63,12.62-1.48,7.28-1.72,14.85-4.8,21.73-1.61,3.58-3.07,7.64-8.08,7.9-3.37-1.74-6.77-1.99-10.48-.89-16.54,4.94-33.24,9.26-50.03,13.29-9.09,2.18-11.71,.78-15.33-7.81-6.66-15.79-12.01-32.07-17.88-48.15-.69-1.89-1.42-3.78-1.53-5.85-1.27,17.82-.65,35.67-.59,53.5,.03,8.62,4.42,12.48,13.11,11.89,7.23-.5,14.42-1.66,21.47-3.32,16.99-4.01,33.9-8.38,50.63-13.42,4.08-1.23,7.15-.67,9.36,2.99,4.28,7.06,8.45,14.19,12.57,21.35,2.18,3.79,.79,6.92-1.95,9.8-12.66,13.31-25.89,25.96-41.13,36.35-10.82,7.38-21.59,14.89-33.66,20.15-18.85,8.21-37.45,8.33-55.73-1.97-3.03-1.71-4.97-4.75-8.26-5.99-5.67-4.58-8.92-10.82-11.63-17.35-5.74-13.85-8.63-28.44-10.88-43.18-3.12-20.39-3.18-40.91-2.59-61.46,.31-10.9,1.8-21.67,4.19-32.26,3.97-17.57,13.92-31.59,27.41-43.08,16.96-14.44,36.35-24.37,58.02-29.74,2.44,2.13,2.84,5.24,3.83,8.05,5.33,15.24,11.65,29.96,21.73,42.8,5.52,7.03,12.4,12.01,21.15,14.09,8.94,2.13,16.25-.71,21.84-7.9,5.8-7.46,7.74-16.35,8.26-25.43,.52-9.01,.5-18.08-.17-27.11,.67-4.49,3.67-7.94,5.36-11.98,.66-1.58,2.08-2.44,3.95-1.59,20.59,5.45,39.54,14.57,57.5,25.88,13.64,8.59,25.88,19.14,39.14,28.25,3.96,2.72,7.56,5.99,12.07,7.86,7.72,3.02,14.05,8.37,20.99,12.67,8.35,5.17,16.77,10.18,25.4,14.87,1.92,1.05,3.88,2.13,6.18,2.15,2.12,.23,4.17-.14,6.19-.78,12.9-2.16,25.5-5.88,38.56-7.13,1.37,.29,2.35,1.08,2.98,2.32,.57,1.12,.96,2.3,1.22,3.53,.29,1.44,.31,2.9,.33,4.36,.01,1.37,.17,2.73,.59,4.04,.17,.52,.27,1.06,.36,1.6,.16,1.08,.18,2.16,.22,3.25,.04,1.35,.29,2.66,.7,3.94,.23,.8,.37,1.61,.44,2.44,.09,1.11,.1,2.22,.1,3.33-.02,1.66,.13,3.3,.67,4.89,.17,.55,.28,1.11,.36,1.67,.18,1.43,.19,2.87,.22,4.31-.02,1.76,.18,3.5,.76,5.18,.18,.61,.29,1.22,.37,1.84,.22,1.95,.21,3.9,.21,5.86-.09,2.06,.12,4.2-1.61,5.79-8.98,.96-17.95,2.02-26.95,2.87-39.32,3.71-77.45,.21-112.98-18.88-2.8-1.51-5.56-3.23-8.76-3.92-4.09-.04-7.02-2.78-10.34-4.54-8-4.24-15.85-8.75-23.24-14-5.48-4.96-9.73-11-14.6-16.25,6.97,21.69,13.22,43.86,20.33,65.77,.82,2.52,1.06,5.09,1.45,7.65,.12,.8-.37-.03,.09,.55,.55,.7,.49-.7,1.04-.57,2.15,6.09,2.16,12.57,3.43,18.83,2.1,10.42,4.11,20.86,6.99,31.11,2.6,9.24,6.87,17.55,12.9,24.98,1.39,1.72,2.69,3.51,4.12,5.2,5.37,6.3,5.21,13.17,2.11,20.32-2.73,6.32-6.78,11.83-10.79,17.36-15.21,15.44-34.72,22.73-54.89,28.57-12.89,3.73-25.99,6.78-38.99,10.13Z"/>
    <path class="e" d="M1074.46,983.61c7.43-13.17,9.34-27.64,9.83-42.4,.8-24.21-2.06-48.13-6.02-71.95-.26-1.55-.7-2.69-2.37-3-1.12-7.91-2.39-15.81-3.73-23.69-1.31-7.76-1.25-7.69-9.25-5.9-12.72,2.86-25.53,5.09-38.65,4.87-2.2-.04-4.42,.12-6.53-.67-3.56-3.26,.23-4.55,1.89-5.9,5.29-4.33,10.81-8.39,16.37-12.38,16.02-11.51,31.5-23.73,47.3-35.52,2.42-1.81,4.78-3.71,7.9-4.24,6.12-.34,12.01-2.56,18.2-2.33,5.86,2.68,12.08,4.51,17.83,7.47,2,3.92-.33,7.82-.07,11.74,.14,2.18-.07,4.38,.57,6.51,1.29,4.53,4.61,6.29,8.98,6.6,4.24,.3,8.41,.04,12.36-1.74,12.3-5.55,22.65-13.43,30.08-24.9,3.1-4.79,4.64-9.65,2.78-15.33-.66-2-1.52-4.26,.39-6.22,14.4,1.65,27.18,7.16,38.24,16.49,9.72,8.19,18.55,17.29,27.37,26.44,13.7,14.21,26.46,29.34,41.42,42.3,10.28,8.9,12.07,9.12,24.03,2.49,15.03-8.33,28.6-18.8,42.15-29.27,12.9-9.97,25.58-20.23,38.35-30.36,1.72,.2,2.91,1.34,3.92,2.55,7.78,9.34,16.64,17.7,24.47,26.99,.52,.62,.78,1.38,1.04,2.14-19.5,19.82-39.87,38.71-60.43,57.4-13.11,11.92-26.6,23.39-40.62,34.26-14.65,11.35-30.79,13.9-48.45,10.13-7.7-1.64-15.19-3.88-22.45-6.91-1.47-.61-2.88-1.44-4.63-1.33-1.1,2.93,.04,5.99-.52,8.93-3.15-.6-2.4-3.3-2.66-5.28-.33-2.47-.72-4.85-2.89-6.38-8.33-5.91-16.9-11.45-25.84-16.73,3.65,11.84,7.99,23.27,13.43,34.16,6.9,13.79,11.95,28.12,15.46,43.09,2.44,10.38,5.09,20.69,8.66,30.78,4.51,12.75,.39,21.83-11.79,27.85-10.55,5.21-21.89,8.03-33.1,10.63-.99,.08-.03,1.1-.33,.35-.06-.14,.11-.24,.52-.26,9.5-.47,18.79-2.1,27.88-4.88,1.93-.59,3.88-1.16,5.91-1.1,2.21,.07,4.7-.05,5.47,2.67,.71,2.48-.82,4.31-2.63,5.67-4.95,3.72-10.97,3.83-16.72,4.3-18.84,1.53-37.78,1.2-56.63,2.65-13.04,1-26,2.83-38.83,5.49-9.88,2.04-19.78,3.23-29.93,1.64-16.01-2.51-28.5-10.48-37.99-23.43-1.31-1.79-2.37-3.75-2.82-5.97-.96-4.71,.45-7.38,5.14-8.4,2.47-.54,3.58-1.28,3.15-3.89-.97-5.94,.39-11.55,2.26-17.17,2.05-6.16,2.48-12.6,2.49-19.06Z"/>
    <path class="e" d="M652.85,809.72c-.06-1.02,.06-1.84,.98-2.62,16.3-13.73,32.93-27.01,51.32-37.9,3.97-2.35,8.08-4.47,12.2-6.54,15.04-7.56,30.73-8.54,46.87-4.43,4.29,1.09,8.57,2.13,13.03,1.99,2.28-.91,2.76,2.19,4.68,2.09,.7,.55,1.09,1.29,1.31,2.13,.38,1.75,.33,3.53,.39,5.3,1.23,11.61,2.72,23.14,8.49,33.61,1.36,2.47,2.72,4.96,4.64,7.02,5.83,6.27,13.01,9.75,21.57,8.02,8.76-1.77,13.36-8.28,15.86-16.47,1.7-4.49,1.57-9.28,2.33-13.92,7.97-7.89,12.73-17.36,14.11-28.54,.35-2.79,1.88-4.46,5.03-3.23,5.63,.6,10.87,2.56,16.12,4.54,10.29,3.87,20.53,7.87,31.24,10.49,22.01,4.68,42.97,12.9,64.58,18.93,3.99,1.11,6.24,3.47,5.7,7.87-2.44,15.87-5.56,31.63-8.1,47.48-.38,2.39-.72,4.78-2.49,6.65-11.59,4.95-23.77,6.39-36.07,4.4-10.65-1.72-16.99-9.41-21.55-18.63-1.97-3.98-3.08-8.29-4.51-12.97-1.35,8.48-2.23,16.69-2.91,24.86-1.88,22.45-4.18,44.89-3.92,67.46,.21,17.33,1.8,34.3,14.08,48.14,1.62,1.82,2.68,4.19,2.57,6.66-.46,10.86-2.08,21.82-10.53,29.33-14.37,12.76-32.22,18.46-47.25,21.93,15.63-2.96,35.54-2.81,53.01-13.16,3.45-2.04,7.12-3.83,11.13-4.6,2.37-.46,5.11-1.02,6.71,1.27,1.72,2.48-.44,4.54-1.74,6.48-16.26,24.29-39.11,37.39-68.01,41.01-18.62,2.33-37.24,4.6-55.97,3.45-17.92-1.1-35.82-.87-53.73-1.11-3.52-.05-7.32-.37-8.36-4.44-1.06-4.14,1.9-6.9,5.03-8.81,7.1-4.32,15.28-4.92,23.26-5.61,5.71-.49,11.48-.54,14.97-.84-8.16,.51-18.59,.57-28.93,2.42-10.64,1.91-21.14-4.8-25.8-15.83-3.86-9.12-5.24-18.43-2.47-28.29,3.92-13.95,7.39-28.04,9.29-42.44,2.34-17.72,2.4-35.17-3.91-52.38-3.88-10.59-5.26-21.86-6.11-33.17-.95-12.66-1.93-25.28-.06-37.93,.11-.76,0-1.63-.87-2.21-2.2-.09-3.46,1.68-4.99,2.87-9.87,7.66-19.83,15.19-29.64,22.92-6.16,4.85-7.85,4.53-12.62-2.02-4.75-6.53-8.4-13.74-12.34-20.77-1.08-1.93-1.84-4.05-3.77-5.37-3.78-4.39-3.46-9.84-3.89-15.1Z"/>
    <path class="e" d="M1086.85,720.12c-17.36-10.65-23.62-27.23-24.34-46.48-.46-12.21,4.73-21.38,16.27-26.44,.7-.3,1.29-.83,2.15-1.39-2.78-2.94-5.4-5.74-7.18-9.16-3.67-7.06-1.95-12.44,5.22-15.95,6.45-3.16,13.47-4.03,20.51-4.44,20.04-1.18,37.77,4.45,53.37,17.87-1.7-2.67-3.35-5.37-5.1-8-2.01-3.02-3.95-6.09-6.2-8.92-2.11-2.66-4.58-5.02-6.96-7.6,7.3-.55,16.31,4.3,20.83,11.56,2.87,4.6,5.26,9.51,7.82,14.3,1.07,2.01,2.51,3.44,4.59,4.54,22.82,12.1,32.22,31.47,27.5,57.31-2.59,14.18-8.17,27.33-15.17,39.89-.61,1.09-1.27,2.05-2.57,2.36-3.36-4.76-.98-9.25,.84-13.62,2.08-5.01,4.98-9.69,6.09-15.09,.33-1.58,.81-3.13,.79-4.76-.03-2.42-.97-4.35-3.3-5.28-2.45-.97-4.33,.2-5.81,2.04-2.17,2.7-3.45,5.89-4.65,9.11-.77,2.08-1.34,4.23-2.18,6.28-.82,2.01-1.36,4.56-4.06,4.72-2.58,.15-3.72-2.13-4.92-3.95-3.95-5.98-6.3-12.58-7.34-19.66-.38-2.56-.76-5.12-1.65-8.08-5.89,2.94-10.63,7.11-16.57,9.08-7.84,2.6-8.58,2.59-14.16-3.96-2.08-2.45-3.17-.49-4.3,.65-3.87,3.93-8.25,7.08-13.26,9.34-1.63,.74-3.71,1.98-5.05,.44-1.49-1.71,.47-3.32,1.5-4.69,3.92-5.21,7.53-10.48,5.69-18.08-2.68,1.43-3.84,3.82-5.28,5.82-3.05,4.23-6.89,6.19-12.01,4.5-3.94-1.3-4.71,.57-4.25,3.87,.82,6,1.95,11.89,4.71,17.41,.65,1.29,3.41,4.6-1.56,4.48Z"/>
    <path class="e" d="M781.03,762.57c-2.44,1.13-2.16-2.13-3.77-2.34-9.51-10.65-18.98-21.35-28.57-31.94-4.47-4.93-7.38-10.6-8.45-17.09-2.31-14.01-1.15-27.73,4.5-40.86,2.17-5.05,4.97-9.72,10.95-11.26,.88-.23,1.61-1.16,2.35-1.83,8.55-7.82,18.82-11.36,30.19-12.2,15.54-1.15,30.08,1.55,42.89,11.07,1.76,1.31,3.75,2.4,5.77,3.26,7.55,3.2,14.29,1.36,19.22-5.27,1.92-2.58,3.4-5.48,5.34-8.04,2.41-3.18,4.64-3.28,7.62-.73,5.34,4.57,7.03,11.47,4.32,18.07-1.63,3.97-4.14,7.35-7.17,10.37-1.67,1.67-3.31,3.38-5.41,5.51,5.85,1.65,10.59,.54,14.98-2.81,4.29-3.27,6.9-2.79,9.74,1.7,3.2,5.05,2.4,12.3-1.97,17.41-3.78,4.42-8.76,6.95-14.08,9.02-6.44,2.51-13.28,3.17-19.92,4.76-6.39,2.84-13.01,1.6-19.51,.81-11.4-1.39-21.5-6.27-31.36-12.83-1.26,5.41-1.76,10.54-2.75,15.57-1.37,6.99-3.99,13.48-7.59,19.58-1.32,2.25-2.93,5.19-5.77,4.47-2.73-.69-2-4-2.11-6.32-.17-3.61,.13-7.25-.83-10.79-1.12-4.16-2.22-8.55-7.73-8.52-3.74,.03-5.6,3.66-5.08,10.04,.82,10.01,5.16,18.91,9.15,27.92,1.91,4.31,5.53,8.01,5.03,13.24Z"/>
    <path class="e" d="M1086.85,720.12c1.58-.06,2.23-.6,1.22-2.16-3.48-5.36-4.84-11.42-5.65-17.64-.16-1.19-.3-2.39-.34-3.6-.2-5.9,0-6.05,5.32-4.13,5.89,2.13,7.31,1.64,11.25-3.45,2.38-3.08,4.17-6.75,8.12-9.21,2.95,11.11-2.02,18.96-8.43,26.45,8.86-2.74,15.49-8.4,21.26-14.86,2.2,.74,1.76,2.38,2.13,3.63,1.46,5.02,3.92,6.4,9.04,4.99,6.1-1.68,11.43-4.89,16.56-8.47,1.77-1.23,3.55-2.44,5.68-3.9,1.57,12.85,2.76,25.27,12.28,34.83,2.06-1.45,2.11-3.31,2.63-4.95,1.7-5.37,3.39-10.77,6.64-15.45,2.47-3.56,5.24-4.73,8.1-3.72,2.92,1.04,4.78,4.41,4.27,8.48-.74,5.85-2.75,11.34-5.66,16.43-2.89,5.06-4.33,10.34-3.68,16.16-1.75,3.65-1.61,7.25-.15,11,1.81,4.63,2.59,9.62,4.88,14.09-.37,2.51,.64,4.82,1.41,7.04,1.6,4.62,.77,8.81-1.62,12.72-8.23,13.51-19.78,23.15-34.53,28.91-4.26,1.66-8.74,1.66-13.11,.98-3.89-.61-7.34-2.34-8.05-6.94,.56-1.97,2.33-2.68,3.86-3.6,13.32-8,23.45-18.86,29.68-33.22-5.96,5.97-12.15,11.78-19.74,15.63-4.19,2.13-8.63,4.79-13.61,1.71-6.5,.02-11.82-3.17-17.15-6.32-3.44-1.61-5.84-4.39-8.17-7.25-5.11-8.09-9.24-16.55-9.71-26.36-1.45-7.68-2.93-15.36-4.33-23.06-.29-1.57-.28-3.19-.41-4.78Z"/>
    <path class="e" d="M410.78,727.51c-10.43-7.8-18.26-28.17-12.18-45.65,2.92-8.41,7.6-11.43,16.6-10.17,3.23,.45,4.19-.9,5.19-3.34,3.53-8.64,8.23-16.52,14.96-23.13,8.74-8.58,19-11.47,30.98-9.04,13.99,2.84,25.63,9.31,33.7,21.36,1.35,2.02,2.84,2.39,5.02,2.25,11.16-.72,18.86,4.7,23.87,14.18,5.46,10.33,7.31,21.25,3.77,32.66-.81,2.61-1.65,5.37-4.56,7.65,2.45-11.73-1.13-20.92-9.17-28.65,2.45,13.11,3.81,25.97-4.48,37.7-2.05-.85-2.16-2.75-2.36-4.53-.91-7.76-5.23-13.39-11.43-17.63-3.83-2.62-7.52-5.3-9.91-9.21-2.34,.79-2.47,5.24-4.91,3.5-2.81-2-1.3-5.46-.71-7.02-1.38,4.81-4.28,10.34-8.2,15.42-8.06,10.45-18.7,12.27-30.78,9.51-5.93-1.36-6.04-1.4-5.93,4.52,.1,5.49-.48,10.83-2.38,15.99-.98,2.67-2.28,5.2-4.6,6.94-3.74,2.8-6.29,1.67-6.96-2.99-.06-.4-.04-.8-.08-1.2-1.2-11.81-4.83-13.95-15.43-9.11Z"/>
    <path class="e" d="M410.78,727.51c2.52-2.97,5.17-6.15,9.58-4.88,4.68,1.34,6.13,5.6,6.98,9.81,.55,2.72,.37,5.58,.54,8.81,4.42-.06,6.47-2.98,8-6.21,1.82-3.85,2.53-8.08,2.73-12.31,.19-4.01,.04-8.03,.04-11.91,2.05-1.07,3.48-.12,4.93,.28,4.49,1.24,9.03,1.96,13.72,1.75,7.26-.32,13.25-3.06,17.74-8.88,3.97-5.15,7.11-10.73,9.25-16.88,.51-1.46,.37-3.25,2.13-4.3,1.09,4.08-.92,8.06-.28,12.36,2.2-2.16,2.08-5.1,4.01-7.34,2.12,2.5,2.85,6.06,5.73,7.98,2.68,1.79,5.43,3.48,7.98,5.43,5.71,4.37,9.04,10.17,9.92,17.33,.2,1.59,.47,3.17,.7,4.77-.25,1.37-.72,2.74-.71,4.11,.14,12.73-2.32,25.02-6.21,37.07-.53,1.66-1.67,3.36,.11,4.98-1.49,.27-2.55,1.12-2.95,2.55-1.11,4.05-3.84,7.26-5.59,10.98-.03,2.58-1.73,4.23-3.27,5.97-15.67,16.77-33.36,12.74-50.97-1.85-4.74-3.93-8.07-9.4-13.63-12.43-1.34-5-4.81-9.13-6.37-13.83-2.45-7.4-6.28-13.32-11.69-18.88-3.58-3.68-5.04-9.07-2.43-14.47Z"/>
    <path class="e" d="M1091.59,747.96c1.81,2.02,1.75,4.73,2.45,7.12,2.01,6.85,5.16,13.15,8.49,19.39-2.77,4.9-7.48,7.38-12.24,9.81-7.39,4.46-13.95,10.08-20.86,15.21-16.73,12.41-33.39,24.92-50.06,37.41-1.11,.83-2.09,1.84-3.13,2.77-5.7,6.42-12.25,11.25-21.31,11.34-8.63,2.82-17.51,4.14-26.56,4.43-2.01,.07-4.03,.08-5.89-.91-.9-.77-1-1.64-.28-2.59,2.02-11.42,3.99-22.85,6.08-34.25,1.22-6.68,1.84-13.48,3.65-20.05,6.53-2.95,13.27-5.32,20.16-7.26,11.14-3.98,21.73-9.26,32.62-13.84,22.35-9.4,44.59-19.03,66.88-28.57Z"/>
    <path class="e" d="M781.03,762.57c-5.97-11.4-11.88-22.81-15.13-35.38-.97-3.76-1.34-7.54-.92-11.36,.4-3.57,2.35-5.76,5.37-6.5,3.42-.83,6.4,.21,8.41,3.26,2.4,3.64,3.11,7.82,3.23,12.09,.1,3.92,.02,7.85,.63,11.89,10.74-11.87,12.88-26.59,14.19-41.59,.83-.49,1.45-.06,2.11,.43,13.24,9.87,28.15,14.42,44.63,13.95,2.01-.06,4.02,.02,6.03,.03,2.5,13.91,3.26,27.94,2.63,42.02-.13,2.98,1.61,3.75,3.49,4.83-1.83,.21-3.46,.31-3.65,2.93-.21,2.98-.93,5.94-1.61,8.87-1.88,8.12-5.88,14.9-12.8,19.78-8.33,6.1-17.59,4.94-26.47,2.41-10.49-2.99-18.87-9.54-25.49-18.29-1.87-2.47-2.95-5.17-3.44-8.17-.4-.4-.8-.81-1.2-1.21Z"/>
    <path class="e" d="M357.23,1005.6c1.25-.05,2.3,.36,3.35,1.09,19.38,13.42,39.88,14.73,60.98,4.86,17.72-8.29,33.44-19.74,48.64-32.01,9.13-7.37,16.84-16.12,25.22-24.22,3.26-3.15,3.16-3.82,.84-7.78-4.07-6.92-8.05-13.89-12.27-20.72-2.48-4.01-3.44-4.28-7.91-2.89-17.42,5.4-35,10.2-52.77,14.3-6.82,1.58-13.7,2.99-20.71,3.12-9.15,.17-13.44-4.05-13.5-13.07-.1-15.91-.11-31.81,.05-47.72,.03-3.49,.93-6.97,1.58-11.47,2.72,7.46,5.32,13.94,7.45,20.56,4.49,13.96,10.13,27.48,15.28,41.19,1.22,3.24,3.11,5.08,6.77,4.54,1.58-.23,3.22-.16,4.76-.53,17.71-4.27,35.41-8.56,52.94-13.56,3.25-.93,7.1-2.88,9.17,2.09,5.25,4.05,7.22,10.36,10.63,15.66,4.3,6.69,4.04,6.49,11.84,4.48,5.94-1.53,10.95-5.71,17.33-5.78,.67,2.84-1.84,3.55-3.38,4.7-4.69,3.53-10.1,5.81-15.37,8.28-3.43,1.61-5.9,3.87-7.94,7.03-7.29,11.29-14.69,22.51-22.89,33.17-9.92,12.89-20.26,25.44-32.25,36.49-9.42,8.67-20.44,14.67-32.37,19.28-6.7,2.59-13.77,4.45-19.8,8.67-4.96,3.47-4.96,4.62-4.19,10.49,1.67,12.67,9.87,18.17,21.21,20.49,4.7,.96,9.49,1.24,14.31,1.53,9.4,.58,18.75-.36,28.11-.15,6.02,.14,11.89-2.07,17.97-1.11-12.5,3.66-25.34,5.76-38.06,8.42-10.62,2.22-21.35,3.56-32.24,3.22-3.09-.76-6.25-1.33-9.26-2.33-7.28-2.43-10.3-6.77-10.34-14.39-.01-2.62,.17-5.19,.83-7.76,1.8-7.02,2.7-14.17,2.96-21.42,.31-8.83,.59-17.67,1.09-26.49,.18-3.16-.82-4.45-4.02-5.22-9.65-2.3-17.66-7.48-24.08-15.06Z"/>
    <path class="e" d="M1410.31,785.56c2.93-6.92,5.08-13.81,3.29-21.63-.92-4-.77-8.41,.78-12.52,.67-1.77,1.38-3.45,3.59-3.5,1.98-.05,2.72,1.56,3.34,3.03,1.5,3.54,2.34,7.26,2.64,11.09,.09,1.2,.02,2.42,.11,3.62,.13,1.82,.26,3.97,2.27,4.48,1.95,.5,2.44-1.68,3.33-2.93,2.24-3.1,4.26-6.37,6.68-9.32,4.82-5.87,6.93-12.58,7.04-20.06,.03-2-.05-4.04,.79-5.94,.5-1.14,1.09-2.2,2.59-2.06,1.13,.11,1.82,.9,2.14,1.87,.37,1.13,.64,2.33,.72,3.52,.37,5.63,.4,11.26-.87,16.81-.44,1.93-.65,3.88-.33,6.61,3.66-4,5.31-8.15,5.9-12.77,.56-4.38,.77-8.83,1.63-13.15,.47-2.32,.06-6.26,3.41-6.23,3.7,.04,3.06,3.93,3.63,6.56,2.04,9.48,.13,18.33-3.96,26.93-1.08,2.27-2.86,4.46-2.14,7.34,5.09-3.28,9.44-10.62,9.69-16.63,.17-4.02,.06-8.05,.11-12.08,.01-.77,0-1.65,.82-2.13,1.16-.67,1.86,.23,2.58,.85,5.05,4.39,6.79,14.39,3.83,21.96-1.48,3.78-3.69,7.14-5.97,10.46-1,1.45-2.41,2.69-2.92,5.66,5-2.47,8.5-5.4,11.01-9.48,1.47-2.4,2.66-4.97,4.04-7.42,.47-.84,.88-1.97,2.09-1.88,1.56,.11,1.7,1.58,1.98,2.66,.52,1.97,.22,3.95-.24,5.96-2.68,11.65-10.07,19.95-19.21,26.95-4.49,3.44-9.52,6.05-14.83,7.99-7.3,2.66-13.67,6.75-19.4,11.93-2.27-.2-3.41-1.93-4.67-3.48-4.69-5.76-9.15-11.71-13.52-17.71-1.15-1.58-2.78-3.04-1.95-5.36Z"/>
    <path class="e" d="M1074.46,983.61c2.67,3.18,1.58,6.99,1.15,10.37-.5,3.91-1.24,7.91-2.79,11.65-2.13,5.17-2.4,10.47-1.08,15.93,.97,3.98,.57,4.26-3.8,3.65-4.2-.58-5.44,.6-5.39,4.87,.05,4.2,2.73,7.14,5.11,9.99,8.22,9.84,18.4,16.96,31.21,19.08,6.17,1.02,12.34,1.92,18.95,1.15,12.74-1.48,25.13-4.75,37.83-6.19,5.56-.63,11.17-.86,16.74-1.47,13.01-1.42,26.12-.44,39.09-1.46,8.34-.66,16.83-.23,25.08-2.15,3.15-.73,6.3-1.35,8.45-4.12,.76-.98,1.53-1.93,.89-3.24-.53-1.08-1.62-.99-2.61-1.08-2.46-.23-4.75,.41-7.08,1.13-10.2,3.13-20.57,5.24-31.31,4.88-1.28-.04-2.84,.56-4.05-1.61,6.07-1.51,11.98-2.82,17.79-4.46,8.11-2.29,16.18-4.75,23.67-8.78,8.25-4.43,12.22-12.16,9.44-21.18-3.61-11.67-7.22-23.34-9.97-35.24-2.27-9.79-4.9-19.44-8.78-28.72-3.1-7.41-7.2-14.36-10.13-21.87-3.64-9.34-7.54-18.59-11.29-27.89-.19-.47,.07-1.13,.11-1.6,1.53-1.25,2.3,.1,3.21,.71,8.7,5.77,17.29,11.7,26.11,17.27,3.15,1.99,4.41,4.32,4.18,7.92-.12,1.91-.67,4.07,1.02,5.73,.07,2.8,.14,5.59,.21,8.39,1.42,4.38-.35,9,1.03,13.39,.1,2.71,.2,5.42,.3,8.13,1.07,2.85-.3,5.95,.88,8.79,.08,1.97,.16,3.94,.23,5.92,1.21,2.35-.15,5.01,.91,7.37l.37,5.77c.84,1.61,0,3.49,.8,5.11,.14,1.52,.28,3.03,.42,4.55,.67,1.23,.08,2.72,.85,3.93,.65,5.9,3.87,10.72,6.6,15.75,2.08,3.82,5.06,7.3,4.5,12.11-2.94,.74-3.12-2.72-5.53-3.53-2.61,3.07-4.28,7.05-7.42,9.88-1.35,1.22-1.14,2.7-.57,4.42,2.86,8.62-.69,14.64-9.78,16.82-6.67,1.6-13.49,2.6-20.29,2.88-11.85,.48-23.71,.71-35.57,1.27-17.74,.83-35.35,2.51-52.67,6.34-21.42,4.73-41.19,2.11-58.95-11.48-1.84-1.41-3.69-3.33-6.48-2.21-6.67-6.59-11.73-14.47-17.34-21.9-1.31-1.73-.33-2.5,1.47-2.66,1.2-.71,2.71-.04,3.87-.9,4.95-2.41,7.74-6.03,8.89-11.73,2.12-10.46,5.83-20.48,11.49-29.66Z"/>
    <path class="e" d="M1066.07,1050.46c1.09-2.2,2.32-2.97,4.68-1.23,5,3.69,9.92,7.52,15.73,9.96,11.31,4.76,22.86,6.96,35.18,4.68,12.76-2.36,25.56-4.72,38.45-6.05,6.53-.67,13.1-1.57,19.75-1.64,13.24-.14,26.45-1.24,39.72-1.26,6.83,0,13.68-1.61,20.47-2.8,3.9-.68,6.97-3.01,9-6.49,1.78-3.06,1.52-6.44-1.37-8.46-2.76-1.93-1.59-3.1,.05-4.59,3.6-3.29,6.84-6.84,8.26-11.66,.31-1.05,.78-1.91,1.97-1.9,1.35,.01,2.35,.82,2.64,2.08,.45,1.95,.4,4.09,2.73,4.98,.43,1.21,.43,2.41,0,3.62-3.4,4.02-1.72,9.33-3.5,13.76-.54,1.06-1.07,2.11-1.61,3.17-1.04,1.02-3.34,1.26-2.26,3.6,.17,.29,.14,.57-.08,.82-12.48,9.8-27.33,12.94-42.53,15.09-8.73,1.23-17.47,2.44-26.2,3.66-9.78,.84-19.59,1.52-29.35,2.56-15.03,1.6-30.02,1.83-45.04-.13-14-1.83-26.83-6.53-38.35-14.78-2.76-1.98-4.68-5.04-8.06-6.2-.2-.22-.3-.48-.28-.79Z"/>
    <path class="e" d="M495.44,787.83c1.23-1.61,2.47-3.23,3.7-4.84,1.48,1.2,1.16,2.89,1.17,4.47,.02,7.44,.39,14.9-.09,22.31-.58,8.81-2.59,17.23-7.31,25.06-5.51,9.14-17.76,14.28-30.55,8.52-9.81-4.42-16.39-12.03-21.95-20.73-8.37-13.11-13.84-27.54-18.55-42.28-.18-.56-.08-1.2-.11-1.8,3.21-.56,6.42-1.13,9.63-1.69,2.05,1.96,1.99,4.74,2.74,7.2,5.32,17.23,13.8,32.58,27.49,44.55,9.37,8.19,19.52,5.86,25.3-5.29,2.42-4.67,4.01-9.64,4.95-14.83,1.67-6.8,.76-14.04,3.57-20.63Z"/>
    <path class="e" d="M652.85,809.72c2.03,4.67,2.01,9.99,4.59,14.48,3.27,4.48,3.86,9.93,5.45,15.02,1.76,5.95,3.47,11.92,5.1,17.9,.52,1.9,1.45,3.79,.38,5.81-7.01-2.02-12.93-6.22-19.07-9.85-10.65-6.3-20.96-13.17-31.38-19.85-.63-.41-1.03-1.19-1.53-1.79,4.48-3.36,9.74-5.27,14.65-7.84,5.99-3.13,12.05-6.14,18.11-9.15,2.02-1.01,3.92-2.02,3.71-4.74Z"/>
    <path class="e" d="M493.05,809.63c-.76,6.07-2.91,11.68-6.06,16.85-5.76,9.47-16.7,11.24-25.38,4.33-9.8-7.81-16.2-18.19-21.97-29.05-4.16-7.84-7.61-15.91-8.26-24.92-.08-.38-.05-.75,.1-1.1,3.38-.28,4.26,2.63,5.58,4.66,4.61,7.09,9.99,13.48,16.16,19.25,9.56,8.93,20.53,12.83,33.58,9.68,2.07-.5,4.26-1.52,6.26,.3Z"/>
    <path class="e" d="M493.05,809.63c-2.3-.32-4.32,.83-6.43,1.34-12.83,3.12-23.75-.69-33.31-9.1-7.1-6.25-13.17-13.44-18.14-21.53-1.01-1.64-1.64-3.75-3.7-4.6-.08-.35-.15-.69-.21-1.05,.27-1.22,.55-2.62,2.12-1.08,3.15,3.08,6.29,6.17,9.31,9.36,5.3,5.6,11.6,9.66,18.64,12.71,11.98,5.18,22.5,3.1,31.76-5.98,.71-.69,1.55-1.24,2.33-1.86,.29,7.38-.36,14.66-2.38,21.79Z"/>
    <path class="e" d="M1410.31,785.56c6.29,9.17,13.1,17.94,20.14,26.55,1.61,2.28,2.26,4.34-.51,6.42-2.35,1.76-4.42,3.9-6.62,5.87-1.53-.64-2.7-1.78-3.73-3.01-8.26-9.83-17.87-18.45-25.7-28.67,2.85-2.51,5.65-5.08,8.55-7.53,4.06-3.43,4.09-3.4,7.87,.37Z"/>
    <path class="e" d="M992.09,790.38c-6.33,3.52-12.57,7.27-20.16,7.26,.67-3.44-.94-4.89-4.2-5.86-18.82-5.62-37.57-11.46-56.34-17.25-2.85-.88-5.86-1.4-8.34-3.25,12.89-.84,25.32,1.37,37.12,6.39,16.65,7.08,33.97,11.14,51.92,12.73Z"/>
    <path class="e" d="M1259.82,1043.45c-.05-3.13-.09-6.27-.14-9.4-.04-2.51,.92-4.16,3.64-4.35,.2,4.93-.93,9.53-3.5,13.76Z"/>
    <path class="e" d="M1247.46,948.65c-2.24-4.32-.68-8.93-1.03-13.39,1.69,4.36,.89,8.91,1.03,13.39Z"/>
    <path class="e" d="M1255.95,1050.22c-.98-.57-2.28-1.24-1.76-2.5,.74-1.83,2.64-.82,4.02-1.1-.26,1.51-1.51,2.4-2.26,3.6Z"/>
    <path class="e" d="M1248.64,965.58c-1.98-2.76-.86-5.83-.88-8.79,1.55,2.8,.78,5.84,.88,8.79Z"/>
    <path class="e" d="M1249.78,978.87c-1.83-2.27-.81-4.89-.91-7.37,1.53,2.31,.94,4.87,.91,7.37Z"/>
    <path class="e" d="M1250.96,989.75c-1.51-1.5-.9-3.34-.8-5.1,1.24,1.55,.96,3.34,.8,5.1Z"/>
    <path class="e" d="M1252.22,998.22c-1.32-1.08-1.03-2.52-.85-3.93,1.08,1.14,.97,2.53,.85,3.93Z"/>
    <path class="e" d="M661.33,839.86c-.97-5.3-3.53-10.2-3.88-15.66,2.19-1.38,2.19,.81,2.75,1.8,3.69,6.45,7.43,12.87,10.9,19.45,1.52,2.89,3.86,5.12,5.52,7.88,1.19,1.99,2.74,2.44,4.94,.65,7.15-5.81,14.49-11.39,21.78-17.03,5.99-4.63,12.02-9.21,18.45-14.13,1.67,3.74,1.11,7.08,.62,10.35-1.36,9.2-1.31,18.4-.02,27.58,.31,2.22,.3,4.4,.42,6.6,.66,12.47,2.94,24.62,7.17,36.39,2.11,5.87,3.5,11.9,3.7,18.16,.08,2.41-.1,4.82,.91,7.13,.31,.7,.41,1.62,.26,2.38-1.76,8.86-1.26,17.92-2.77,26.85-2.45,14.45-6.79,28.43-9.72,42.75-.9,4.4-.37,8.33,.48,12.42,1.1,5.32,2.69,10.43,5.93,14.98,5.36,7.52,14.11,11.02,23.18,9.11,11.31-2.38,22.78-1.84,34.22-1.7,.8,.01,1.56,.31,1.97,1.12,.27,.48,.15,.91-.35,.91-7.63-.08-15.11,1.67-22.76,1.59-7.04-.07-13.89,1.68-20.61,3.75-2.78,.86-4.99,2.63-6.62,5.03-2.33,3.43-1.08,6.16,3.08,6.8,.79,.12,1.61,.05,2.41,.06,1.21,0,2.42,.05,3.63,0,22.94-.91,45.83,1.67,68.75,1.15,11.39-.26,22.71-1.59,34.02-3.19,10.39-1.47,20.55-3.53,30.36-7.12,10.86-3.97,20.77-9.22,27.9-19.06,3.12-4.31,6.95-8.29,10.69-12.22,1.94-2.03,3.43-4.29,4.74-7.11-2.68-1.19-4.91-.88-7.26-.18-4.87,1.46-9.29,3.91-13.66,6.35-9.51,5.3-20,7.01-30.49,8.66-8.87,1.4-17.81,2.43-26.72,3.58-.54,.07-1.13-.21-1.7-.32,.04-1.82,1.39-1.72,2.52-2.01,14.05-3.52,27.88-7.71,40.59-14.84,6.29-3.53,12.92-6.91,16.38-13.73,3.56-7.02,5.66-14.51,5.97-22.44,.1-2.57-1.1-4.6-2.59-6.59-2.28-3.05-4.6-6.1-6.59-9.34-4.3-6.99-5.84-14.72-6.68-22.85-1.04-10.04-1.69-20.1-.87-30.07,.85-10.38,.54-20.8,1.98-31.17,.77-5.5,.96-11.16,1.37-16.75,.84-11.58,2.17-23.09,3.83-34.57,.09-.6,.3-1.15,1.39-1.27,1.5,4.76,2.77,9.69,4.6,14.41,3.87,10.01,10.03,18.17,21.07,20.57,6.44,1.4,13.19,.93,19.8,.03,5.36-.72,10.41-2.98,15.88-3.1,.09,.86,.19,1.73,.28,2.59,0,0-.31-.15-.31-.15-1.07,1.07-.2,2.68-1.05,3.81-.14,1.17-.27,2.34-.41,3.51-.63,1.16,0,2.59-.82,3.72-.13,1.18-.27,2.36-.4,3.54-.62,1.15,.01,2.58-.82,3.69-1.21,1.84-2.65,.88-4.16,.45-11.82-3.38-23.75-6.32-35.93-8.12-1.61-.76-3.45,.05-5.05-.78-1.97,.1-3.94,.12-5.89,.31-6.45,.63-7.39,1.54-8.6,8.08-.68,1.66,0,3.52-.73,5.17,0,9.79,0,19.59-.01,29.38,1.02,2.46-.26,5.19,.9,7.63,.07,1.16,.15,2.33,.22,3.49,1.06,1.51-.1,3.47,.99,4.98,2.14,10.77,6.01,20.69,12.35,29.86,6.89,9.97,9.98,21.53,10.29,33.62,.1,3.87,1.66,5.98,4.82,7.48,1.09,.52,2.16,1.09,3.19,1.71,8.55,5.08,10.75,11,7.44,20.37-.93,2.63-1.8,5.35-3.77,7.48-1.17,.77-2.84,1.27-3.31,2.53-2.59,6.9-9,10.68-13.56,15.76-4.6,5.12-11.42,8.64-17.69,12.17-14.17,7.97-29.56,12.31-45.53,14.75-1.49,.23-2.67,.79-3.63,1.89l.02-.02c-3.57,1.12-7.68-2.84-10.93,1.18-.73,.03-1.45,.05-2.18,.08-13.87,.82-27.74,.81-41.62,0-8.38-.05-16.77-.11-25.15-.16-6.62-2.64-13.18-4.41-20.28-1.17-3.06,1.4-6.63,1-9.96,.05h.01c-4.46-2.97-9.49-2.65-14.49-2.47-.96,.1-1.92,.19-2.58-.74-2.81-5.08-5.87-10.08-4.73-16.3,.09-1.26-.48-2.72,1.06-3.54,3-2.84,5.25-5.78,1.26-9.54l.05,.04c1.43-8.9-3.35-16.09-6.51-23.74,.12-1.85-.45-3.76,.48-5.54,.08-.76,.16-1.52,.24-2.28,1.86-1.22,2.07-2.87,1.24-4.79,2.09-6.47,4.76-12.75,6.08-19.46,.84-1.58-.08-3.46,.85-5.03-.16-.35-.11-.67,.15-.95,2.03-2.51,.75-5.26,.59-7.93,0-8.46,.01-16.91,0-25.36,.47-3.84,3.04-7.8-.57-11.44-.24-.33-.28-.68-.13-1.06-1.01-2.33-.27-4.78-.51-7.15,.39-2.94,2.73-6.02-.6-8.71-.27-.29-.31-.62-.14-.97-.92-2.35-.26-4.8-.47-7.19,.36-2.56,2.03-5.23-.61-7.56-.14-.36-.17-.72-.09-1.1-.81-1.23-.4-2.62-.5-3.94,.47-2.01,1.02-4.03-.6-5.83-.15-.36-.18-.74-.1-1.12-.83-1.25-.4-2.66-.5-4.01,.4-1.59,.68-3.16-.58-4.54-.06-.74-.13-1.48-.19-2.21-.57-.99-.43-2.08-.43-3.15,.41-1.52,.9-3.06-.6-4.32-.15-.36-.19-.73-.12-1.12-.72-.98-.45-2.11-.51-3.2,.13-1.83,1.04-3.76-.66-5.37-.45-.79-1.14-1.48-.92-2.51,.36-1.32,.94-2.77-1.46-2.43-11.81,2.44-23.62,4.9-35.44,7.3-1.34,.27-2.77,.14-4.16,.2-4.28,1.15-5.58-1.78-6.72-4.91-2.07-5.72-2.86-11.94-6.7-16.97Z"/>
    <path class="e" d="M994.94,851.01c7.95-2.19,14.45-7.12,21.31-11.34,16.55,1.09,32.73-1.35,48.74-5.28,7.76-1.9,7.56-1.97,8.54,6.03,.73,5.93,1.87,11.82,3.05,17.69,.57,2.85,.88,5.54-.69,8.15-1.13,.11-2.27,.22-3.4,.33-8.99,.71-17.97,.81-26.96-.07-12.95-.71-25.17-4.45-37.13-9.11-4.62-1.8-9.46-3.26-13.47-6.4Z"/>
    <path class="e" d="M851,1070.87c.09-2.45,1.39-3.45,3.81-3.67,8.87-.83,17.5-2.96,25.87-5.85,10.92-3.77,21.18-8.97,30.34-16.14,.93-.73,1.89-1.85,2.92-1.95,2.4-.24,3.05-1.76,4.13-3.57,3.5-5.86,10.33-8.95,13.24-15.46,.42-.93,2.23-.52,3.43-.45-.93,2-1.87,4-2.8,5.99-2.14,2.36-4.24,4.77-6.43,7.09-15.88,16.78-35.89,26.04-57.93,31.42-5.42,1.32-10.87,2.91-16.58,2.6Z"/>
    <path class="e" d="M1045.54,866.53c8.98,.02,17.97,.04,26.96,.07-8.99,1.79-17.97,1.78-26.96-.07Z"/>
    <path class="e" d="M899.21,914.78c-1.98-2.34-.84-5.05-.91-7.62,1.33,2.42,.79,5.06,.91,7.62Z"/>
    <path class="e" d="M913.55,864.21c1.74-.11,3.55-.7,5.05,.78-1.75,.14-3.45,0-5.05-.78Z"/>
    <path class="e" d="M900.42,923.25c-1.64-1.4-.99-3.25-.99-4.98,1.24,1.48,.98,3.25,.99,4.98Z"/>
    <path class="e" d="M898.32,877.77c-.09-1.77-.73-3.62,.73-5.18,.1,1.77,.49,3.59-.73,5.18Z"/>
    <path class="e" d="M959.9,865.42c-.1-1.32-.38-2.68,.82-3.72,.2,1.34,.23,2.65-.82,3.72Z"/>
    <path class="e" d="M961.12,858.2c-.11-1.4-.39-2.85,1.05-3.81-.03,1.36-.01,2.73-1.05,3.81Z"/>
    <path class="e" d="M1054.08,1025c-1.05,1.34-2.47,1.08-3.87,.9,1.11-1.09,2.48-1.05,3.87-.9Z"/>
    <path class="e" d="M958.68,872.65c-.09-1.31-.37-2.66,.82-3.69,.21,1.34,.22,2.63-.82,3.69Z"/>
    <path class="e" d="M547.66,930.29c-.12,.79-.23,1.58-.35,2.37-.26,.08-.53,.16-.79,.23-8.15-26.59-16.29-53.19-24.44-79.78,.32-.2,.65-.39,.97-.59,5.77,6.73,11.54,13.46,17.31,20.18,1.96,2.66,2.47,5.69,2.93,8.93,1.27,9.04,2.01,18.07,1.62,27.19,.74,7.18,2.54,14.21,2.76,21.46Z"/>
    <path class="e" d="M544.9,908.84c-.71-.79-.97-1.75-.99-2.77-.13-11.23-2.58-22.22-3.56-33.36,10.86,6.32,21.72,12.64,32.58,18.96-7.25,3.89-15.08,6.43-22.72,9.36-4.13,1.58-5.77,3.68-5.31,7.81Z"/>
    <path class="e" d="M715.58,1015.18c.9,.76,2.53,1.47,2.6,2.3,.42,5.24,4.13,9.18,5.23,14.2,.64,2.95-2.24,4.16-1.91,6.59-1.87-6.89-3.28-13.92-6.04-20.55-.57-.88-.62-1.73,.12-2.54Z"/>
    <path class="e" d="M719.12,1051.32c1.91,3.91,1.1,8.8,4.56,12.25,.7,.7,.15,2.67,.18,4.05-6.72-3.58-7.8-7.29-4.73-16.3Z"/>
    <path class="e" d="M726.43,1068.36c.66-1.35,2.29-2.98,3.12-2.14,3.22,3.28,8.8-1.79,11.18,3.44,.16,.35,.13,.79,.19,1.18-3.61,.01-7.26,.33-10.74-1.01-1.25-.49-2.49-.98-3.74-1.48Z"/>
    <path class="e" d="M725.24,941.42c0,9.68,0,19.36,0,29.04,.57,1.23-.07,1.36-1.06,1.17,0-10.85,0-21.71,0-32.56,1.91,.08,1.89,1.04,1.07,2.36Z"/>
    <path class="e" d="M721.44,1038.24c2.34,0,3.6,1.15,3.74,3.5,.11,1.82-.06,3.54-1.85,4.55-1.01,.57-2.1,1-3.15,1.49,1.82-3,1.08-6.33,1.26-9.54Z"/>
    <path class="e" d="M725.24,941.42c-.05-.93-.18-1.81-1.07-2.36-.45-2.43-.45-4.86-.12-7.31,4.62,2.34,4.99,5.37,1.19,9.67Z"/>
    <path class="e" d="M722.82,914.82c4.52,2.2,4.71,3.32,1.24,7.26-.93-.53-.42-1.73-1.1-2.37-.44-1.62-.39-3.25-.14-4.88Z"/>
    <path class="e" d="M722.96,919.71c.89,.55,1.02,1.45,1.1,2.37-.04,2.87-.09,5.74-.13,8.61-1.46-3.56-.91-7.3-.97-10.98Z"/>
    <path class="e" d="M724.17,971.62c.35-.39,.71-.78,1.06-1.17,2.18,2.52,1.36,4.45-1.2,6.03-.25-1.63-.3-3.25,.14-4.86Z"/>
    <path class="e" d="M715.58,1015.18c-.04,.85-.08,1.7-.12,2.54-1.77-2.91-1.52-5.82,0-8.73,.04,2.06,.07,4.12,.11,6.18Z"/>
    <path class="e" d="M722.79,905.17c-.04,2.89-.07,5.79-.11,8.68-.35-.75-.71-1.51-1.06-2.26,.1-2.14,.2-4.29,.3-6.43l.44-.38,.43,.38Z"/>
    <path class="e" d="M716.96,1001.93c1.29,2.04,1.96,3.92-1.24,4.79,.41-1.6,.83-3.19,1.24-4.79Z"/>
    <path class="e" d="M723.89,977.44c.04,1.73,.67,3.56-.85,5.03-.07-1.74-.35-3.51,.85-5.03Z"/>
    <path class="e" d="M740.91,1070.83c4.08-.14,8.32,.81,11.75-2.69,1.46-1.49,3.85-1.26,5.75-.88,4.47,.88,9.78-.33,12.74,4.7-8.97-.04-17.95-.07-26.92-.11-1.2,0-2.4-.05-3.32-1.01Z"/>
    <path class="e" d="M796.3,1072.11c13.87,0,27.74,0,41.61,0-1.14,1.06-2.58,.97-3.97,.97-11.42,0-22.84-.02-34.26-.03-1.21,0-2.41-.06-3.38-.93Z"/>
    <path class="e" d="M840.09,1072.02c1.79-3.59,3.56-4.48,6.71-3.14,1.42,.61,2.5,1.98,4.23,1.96-3.48,1.92-7.26,1.01-10.93,1.18Z"/>
    <path class="e" d="M526.91,937.75c-7.4,4-15.15,7.03-23.37,8.92-1.93,.44-2.94,.11-3.88-1.53-4.15-7.27-8.37-14.5-12.56-21.74,5.29-3.5,7.24-8.95,8.32-14.77,1.39-7.46,2.33-15.01,3.93-22.42,.54-2.49,.54-6.95,3.57-6.78,3.28,.19,3.34,4.31,3.47,7.35,.15,3.6,1.26,7.07,1.36,10.72,.06,2.41,1.72,2.95,3.79,1.73,.17-.1,.31-.26,.48-.37q8.25-5.46,15.46,1.54c1.29,1.25,2.71,2.38,4.18,3.43,8.38,5.99,9.93,18.62,3.19,26.62-2.33,2.77-5.11,5.07-7.94,7.3Z"/>
    <path class="e" d="M661.33,839.86c3.29,1.64,4.38,5.07,5.31,8.01,.95,2.99,2.52,5.81,2.96,8.97,.42,2.98,2.24,4.51,5.14,4.89-1.89,1.63-4.17,1.23-6.37,1.2-3.05-7.48-4.39-15.48-7.04-23.08Z"/>
    <path class="e" d="M722.79,905.17h-.44s-.44,0-.44,0c-.1-2.02-.21-4.04-.31-6.05,3.92,2.09,4.15,3.23,1.19,6.06Z"/>
    <path class="e" d="M720.41,888.23c1.98,1.23,3.46,2.58,1.17,4.85-.3,.54-.6,.57-.89-.01-.1-1.61-.19-3.22-.29-4.83Z"/>
    <path class="e" d="M716.72,859.19c2.6,1.07,2.48,2.82,1.22,4.85-.29,.54-.58,.51-.87,0-.12-1.62-.23-3.23-.35-4.85Z"/>
    <path class="e" d="M718.01,868.88c2.59,.52,3.11,1.69,1.15,3.64-.31,.56-.62,.56-.92,0-.08-1.21-.15-2.42-.23-3.63Z"/>
    <path class="e" d="M714.34,854.25c.11-.75,.23-1.64,1.12-1.73,1-.09,1.13,.83,1.22,1.58,.13,.99-.1,1.89-.88,2.58-.24-.96-.44-1.94-1.46-2.43Z"/>
    <path class="e" d="M719.23,878.56c1.29,.92,3.31,1.62,1.14,3.63-.31,.56-.61,.56-.91-.01-.08-1.21-.15-2.41-.23-3.62Z"/>
    <path class="e" d="M719.46,882.18c.3,0,.61,0,.91,.01-.02,1.64-.04,3.28-.06,4.92-1.33-1.46-1.09-3.19-.85-4.93Z"/>
    <path class="e" d="M720.69,893.06c.3,0,.59,0,.89,.01-.02,1.64-.05,3.29-.07,4.93-1.33-1.47-1.08-3.21-.81-4.94Z"/>
    <path class="e" d="M717.08,864.04c.29,0,.58,0,.87,0-.02,1.24-.04,2.47-.06,3.71-1.11-1.06-1.11-2.35-.81-3.72Z"/>
    <path class="e" d="M718.24,872.51c.31,0,.61,0,.92,0-.04,1.28-.08,2.55-.12,3.83-1.12-1.1-1.05-2.45-.8-3.84Z"/>
    <path class="e" d="M1126.62,787.89c6.31,.46,11.81-1.66,16.87-5.26,4.9-3.49,9.6-7.2,13.85-11.49,1.51-1.52,2.71-3.46,5.56-4.5-6.72,18.98-19.11,32.05-36.46,40.73-2.1-4.24-.96-8.62-.4-12.93,.29-2.18,.84-4.32,.59-6.55Z"/>
    <path class="e" d="M1090.3,784.28c3.59-3.88,7.95-6.8,12.24-9.81,2.31,2.37,4.63,4.73,6.94,7.1-6.38,.97-12.63,2.9-19.17,2.71Z"/>
    <path class="e" d="M835.45,802.33c-4.81,20.71-26.07,22.55-38.23,10.86-4.9-4.71-7.85-10.67-10.01-16.93-2.94-8.53-4.6-17.37-4.95-26.42,2.8-.44,3.23,1.97,4.14,3.6,9.57,17.19,24.21,25.81,43.83,26.25,1.98,.04,4.67-.56,5.22,2.64Z"/>
    <path class="e" d="M835.45,802.33c-1.82-1.84-4.15-1.13-6.27-1.13-13.23,.04-24.63-4.91-34.25-13.53-4.53-4.06-8.15-9.28-10.48-15.12-.47-1.18-1.08-2.11-2.19-2.71-.01-2.02-.02-4.04-.03-6.06,9.83,17.58,29.59,32.91,55.4,24.05,.19,4.97,.1,9.9-2.18,14.5Z"/>
    <path class="e" d="M1059.72,1036.46c-2.31-1.55-3.18-3.84-4.99-5.25-1.04-.81-.99-2.7,.54-3.48,1.35-.69,2.12,.31,2.5,1.6,.65,2.19,1.83,4.24,1.95,7.13Z"/>
    <path class="e" d="M1065.61,1015.28c-.2,1.94,2.71,3.73,.39,5.68-.11,.1-.46,.11-.54,.02-1.64-1.89,.16-3.81,.15-5.7Z"/>
    <path class="e" d="M1062.98,1040.75c.08,.46-.17,.77-.61,.6-.27-.1-.46-.52-.61-.83-.04-.07,.3-.42,.32-.41,.31,.19,.6,.42,.9,.64Z"/>
  </g>
</svg>