<?xml version="1.0" encoding="UTF-8"?>
<svg id="b" data-name="Camada 2" xmlns="http://www.w3.org/2000/svg" viewBox="0 0 1702.16 1854.75">
  <defs>
    <style>
      .d {
        fill: aqua;
      }
    </style>
  </defs>
  <g id="c" data-name="Camada 1">
    <path class="d" d="M0,559.61c2.99-14.06,5.17-28.35,9.11-42.14,12.04-42.18,37.48-75.65,69.17-105.08,32.3-30,71.61-48.95,109.34-70.3,79.69-45.09,159.16-90.6,239.78-133.98,105.59-56.81,211.97-112.18,318.54-167.15,27.56-14.22,57.14-24.5,85.69-36.83,13.92-6.01,27.64-5.18,41.09,.66,36.01,15.64,72.61,30.13,107.63,47.76,73.83,37.17,147.3,75.12,219.99,114.46,91.29,49.41,181.8,100.26,272.34,151.03,42.23,23.68,85.14,46.59,125.23,73.57,49.65,33.41,85.4,78.9,99.29,138.75,3.04,13.08,4.7,26.78,4.72,40.2,.28,237.7,.29,475.4,.11,713.09-.03,37.85-14.14,71.15-35.81,101.55-25.92,36.35-59.88,62.95-98.51,84.99-97.27,55.51-193.25,113.32-290.86,168.21-102.83,57.82-206.73,113.74-310.65,169.59-27.9,15-57.58,26.7-86.4,39.98-18.13,8.36-36.32,9.43-54.62,.69-46.53-22.24-93.55-43.52-139.43-67.04-50.11-25.68-99.42-52.96-148.59-80.42-63.72-35.59-127.17-71.69-190.36-108.21-80.1-46.3-160.62-91.95-239.43-140.38-50.23-30.86-85.82-75.37-102.19-133.34C2.72,1310.6,1.69,1301.52,0,1292.62c0-244.34,0-488.68,0-733.01Zm1612.34,366.8c0-116.15,.14-232.3-.22-348.45-.04-11.79-1.54-24.06-5.04-35.27-12.55-40.15-41.27-67.24-76.2-87.85-43.88-25.89-88.52-50.48-132.93-75.46-52.64-29.61-105.22-59.33-158.13-88.44-49.34-27.15-98.98-53.75-148.68-80.24-76.61-40.84-153.02-82.11-233.3-115.49-3.78-1.57-9.42-1.49-13.16,.16-26.17,11.5-52.42,22.92-77.98,35.69-50.11,25.02-100.07,50.37-149.57,76.58-56.71,30.03-112.91,61.04-169.23,91.82-36.71,20.07-73.31,40.35-109.8,60.83-41.97,23.55-83.86,47.24-125.59,71.21-26.13,15.01-53.56,28.08-75.72,49.28-27.06,25.89-46.35,55.45-46.34,94.64,.04,234.83,.01,469.66,.06,704.48,0,4.07,.37,8.19,1.11,12.19,5.34,29.17,22.48,51.78,44.49,69.34,21.72,17.33,46.18,31.41,70.18,45.66,54.64,32.42,109.65,64.24,164.69,95.99,56.39,32.54,112.81,65.03,169.56,96.94,47.99,26.98,96.09,53.8,144.82,79.38,52.3,27.45,105.33,53.5,158.27,79.7,4.1,2.03,10.76,2.18,14.9,.29,29.14-13.32,58.46-26.41,86.73-41.44,66.12-35.12,131.83-71.01,197.42-107.12,45.74-25.18,91.21-50.87,136.43-76.98,76.26-44.05,152.25-88.58,228.3-132.99,25.5-14.89,51.92-28.34,71.96-51.17,20.35-23.18,33.72-47.88,33.41-80.51-1.08-114.25-.42-228.51-.42-342.77Z"/>
    <path class="d" d="M883.68,649.82c27.9-32.72,69.03-25.02,84.53,1.4,2.85-2.62,5.48-5.14,8.22-7.55,17.9-15.74,38.44-19.25,60.67-11.98,17.65,5.77,28.78,22.61,29.19,44.34,.52,27.76,.35,55.53,.09,83.29-.11,12.04-8.96,20.21-20.49,20.03-12.21-.19-19.8-7.82-19.87-20.38-.12-21.14,.44-42.29-.23-63.41-.37-11.67-2.07-23.66-15.55-28.58-19.55-7.12-35.79,5-36.26,27.55-.43,20.81-.07,41.65-.13,62.47-.04,14.42-7.05,22.29-19.69,22.3-12.96,0-20.72-8.35-20.78-22.64-.08-20.82,.05-41.65-.05-62.47-.09-17.35-8.96-28.41-23.06-29.09-16.12-.77-27,8.36-28.04,26.31-1.24,21.36-.55,42.84-.72,64.27-.13,15.77-6.96,23.73-20.23,23.62-12.78-.11-20.23-8.92-20.24-24.17-.02-33.86,0-67.73,.05-101.59,.02-13.57,6.16-22.07,16.8-23.5,13.1-1.76,19.63,3.16,23.93,17.96,.14,.5,.83,.84,1.87,1.83Z"/>
    <path class="d" d="M595.13,651.95c13.08-15.41,26.55-23.95,44.74-23.65,27.95,.45,47.7,19.13,48.16,47.3,.46,28.06,.23,56.13,.07,84.2-.07,11.85-8.02,19.48-19.58,19.51-11.91,.04-20.53-7.77-20.7-19.74-.32-22.07,.05-44.15-.2-66.22-.18-16.28-8.46-26.45-22.18-28.14-16.56-2.04-29.41,8.05-29.96,24.87-.7,21.75-.21,43.53-.4,65.3-.15,16.64-9.75,25.91-24.44,23.57-9-1.44-14.63-6.7-15.88-16.02-.33-2.49-.5-5.02-.5-7.54-.03-52.03-.07-104.07,0-156.1,.02-14.76,7.57-23.67,19.75-23.85,11.84-.17,20.48,9.04,20.89,23.19,.42,14.6,.18,29.21,.23,43.82,0,2.13,0,4.25,0,9.5Z"/>
    <path class="d" d="M722.4,1271.13c-19.61-.92-37.42-6.31-53.62-16.93-8.16-5.35-10.79-15.44-6.27-22.79,4.47-7.27,13.37-8.67,22.58-4.77,10.89,4.62,21.92,9.38,33.36,12.11,12.45,2.97,22.56-1.79,24.14-8.96,1.54-7-3.72-12.07-17.35-16.57-9.83-3.24-19.93-5.81-29.5-9.69-21.12-8.55-29-22.11-27.29-45.23,1.25-16.84,14.88-32.64,33-37.15,22.97-5.72,44.96-1.89,65.75,8.86,9.25,4.79,12.1,14,7.8,22.26-3.84,7.37-13.15,9.63-22.05,6.81-11.5-3.65-23.25-6.76-35.11-8.93-5.71-1.04-11.19,1.68-12.8,8.53-1.62,6.88,3.15,10.13,8.04,12.18,13.59,5.72,27.62,10.38,41.14,16.24,18.69,8.1,27.03,22.59,24.72,43.08-2.05,18.17-11.87,30.4-28.93,35.94-8.82,2.87-18.39,3.41-27.63,5.01Z"/>
    <path class="d" d="M857.67,1270.22c-19.1-.14-36.57-5.53-52.5-15.93-8.16-5.33-10.91-15.27-6.55-22.67,4.47-7.59,13.64-8.89,23.33-4.67,10.55,4.59,21.5,8.36,32.48,11.86,3.41,1.09,7.49,.4,11.22,.08,6.29-.55,11.91-2.38,12.97-9.87,1.08-7.66-4.36-10.84-10.01-12.98-8.78-3.34-17.88-5.87-26.82-8.81-3.28-1.08-6.55-2.19-9.73-3.53-21.3-8.98-28.99-21.73-27.37-45.21,1.19-17.22,15.11-32.95,33.73-37.51,22.71-5.56,44.32-1.29,64.93,8.7,8.84,4.28,11.88,13.52,8.15,21.4-4.29,9.06-12.65,11.37-22.99,7.61-9.94-3.62-20.12-7.04-30.5-8.8-6.52-1.11-14.54-.24-16.61,8.64-2.07,8.88,5.27,11.38,11.17,13.85,12.44,5.2,25.3,9.4,37.73,14.63,28.04,11.81,30.5,39.89,19.17,60.73-7.55,13.89-20.93,19.32-35.78,21.52-5.27,.78-10.68,.68-16.02,.98Z"/>
    <path class="d" d="M506.88,1195.06c-1.59-40.56,31.57-77.6,77.04-76.91,17.38,.26,33.72,3.06,47.75,14.23,9.23,7.35,11.63,17.24,6.01,25.55-6.03,8.92-17.37,11.03-27.24,4.28-9.14-6.25-18.73-10.41-29.9-9.23-15.83,1.67-28.29,13.1-32.23,29.02-4.48,18.12,1.83,37.81,15.25,47.57,12.17,8.85,29.96,9.07,43.54,.49,2.13-1.34,4.12-2.89,6.26-4.22,8.82-5.49,19.47-4.19,24.63,2.96,5.29,7.33,3.74,17.7-3.87,24.6-12.15,11-26.88,16.44-42.84,17.54-39.34,2.72-73.75-19.27-82.62-59.06-1.22-5.46-1.22-11.2-1.78-16.81Z"/>
    <path class="d" d="M1220.24,1189.64c-2.18-1.67-3.23-2.89-4.56-3.42-18.77-7.58-24.95-22.57-22.37-43.89,3.25-26.89-4.88-34.51-23.87-41.6-7.88-2.94-11.34-8.6-9.7-16.94,1.66-8.43,7.83-11.7,15.38-10.44,37.01,6.16,60.69,22.46,55.39,63.35-.83,6.43-.11,13.24,.96,19.69,1.35,8.19,6.86,13.27,14.85,15.4,3.33,.89,6.78,1.34,10.17,1.99,8.27,1.59,12.59,6.72,12.83,15.02,.24,8.16-5.09,15.65-13.17,15.7-20.73,.13-27.79,14.01-25.82,36.26,.68,7.73,.03,15.66-.81,23.41-1.52,14.05-9.7,23.97-22.05,29.65-10.17,4.68-21,8.19-31.86,11.01-7.18,1.86-12.82-1.94-15.34-9.24-2.49-7.24-.08-12.84,6.14-16.97,.51-.34,1.15-.49,1.72-.76,26.08-12.79,27.4-15.57,24.65-45.48-1.9-20.61,6.58-35.31,27.46-42.74Z"/>
    <path class="d" d="M1073.01,1189.16c2.9,1.65,4.91,2.96,7.06,3.99,15.03,7.16,20.12,19.74,19.51,35.52-.31,7.86-1.12,15.78-.56,23.59,.98,13.63,10.93,19.71,22.27,24.07,6.23,2.39,11.16,5.72,11.78,13.14,.83,9.98-6.73,17.72-16.34,15.22-10.86-2.82-21.76-6.26-31.83-11.13-15.48-7.49-23-20.76-22.94-38.11,.03-9.11,.48-18.24,.03-27.33-.74-14.8-7.38-21.51-22-23.22-10.44-1.22-16.99-7.1-17.26-15.49-.26-7.85,5.66-13.91,15.55-15.91,19.5-3.95,24.73-11.12,24.08-31.3-.33-10.02-.34-20.2,1.05-30.09,1.83-13.04,9.93-22.63,21.72-27.84,10.51-4.64,21.66-8.12,32.85-10.8,7.09-1.69,13.03,1.76,14.79,9.69,1.71,7.72-.81,13.64-8.18,17.06-3.41,1.58-6.95,2.89-10.37,4.47-10.54,4.89-15.54,13.38-15.47,24.83,.06,8.47,.86,16.94,.68,25.39-.3,14.28-7.33,24.3-20.31,30.25-1.9,.87-3.54,2.31-6.1,4.01Z"/>
    <path class="d" d="M733.19,666.19c-12.39-2.32-18.27-7.7-19.24-16.55-.97-8.81,3.35-13.75,15.15-18.47,1.82-.73,3.57-3.7,3.86-5.83,.82-6.14,.01-12.59,1.43-18.54,2.68-11.28,11.05-16.24,22.76-14.74,10.15,1.3,16.14,8.41,16.51,19.52,.2,5.93-1.68,13.8,1.37,17.22,2.76,3.1,10.96,1.24,16.75,1.78,11.63,1.08,19.33,8.51,19.09,18.25-.24,9.77-7.99,16.15-20.22,16.63q-16.75,.65-16.9,17.36c-.09,14.17-.35,28.35-.05,42.51,.32,15.71,3.11,18.27,18.68,18.8,8.13,.28,15.61,6.38,16.99,13.86,1.65,8.96-2.38,15.66-11.52,18.95-13.46,4.85-27.24,5.09-40.8,1.16-15.74-4.56-23.74-18.74-23.83-40.72-.1-23.6-.02-47.2-.02-71.19Z"/>
    <path class="d" d="M416.19,681.42c18.05,8.11,34.23,15.37,50.41,22.64,10.88,4.89,21.87,9.57,32.61,14.78,10.7,5.19,14.7,15.62,10.11,24.93-3.91,7.94-14.52,10.83-24.78,5.98-30.97-14.63-61.75-29.66-92.71-44.32-10.28-4.87-16.37-11.95-16.72-23.88-.37-12.69,6.81-19.83,16.98-24.77,21.18-10.31,42.53-20.27,63.81-30.39,9.93-4.72,19.78-9.61,29.81-14.11,6.96-3.12,14.92-4.4,19.79,2.31,3.27,4.49,5.56,12.01,4.12,16.96-1.46,5.01-7.36,9.98-12.52,12.44-23.79,11.33-48.01,21.75-72.05,32.56-2.43,1.09-4.7,2.57-8.87,4.88Z"/>
    <path class="d" d="M1287.4,681.35c-20.61-9.31-38.54-17.43-56.49-25.49-8.87-3.98-18.15-7.22-26.58-11.97-4.58-2.58-10.21-7.21-10.98-11.68-.97-5.65,.83-13.54,4.5-17.82,5.36-6.24,13.82-4.65,20.99-1.27,26.99,12.71,53.91,25.56,80.83,38.41,5.38,2.57,10.94,4.9,15.91,8.13,17.42,11.32,16.59,35.41-2.01,44.61-31.79,15.73-63.95,30.73-96.06,45.8-10.44,4.9-20.56,1.75-24.3-6.8-4.17-9.53-.22-19.04,10.37-23.88,23.71-10.83,47.51-21.44,71.27-32.16,3.37-1.52,6.69-3.13,12.55-5.88Z"/>
    <path class="d" d="M1146.65,677.03c0,26.83,.18,53.66-.08,80.48-.14,14.24-7.73,21.97-20.33,21.8-11.4-.15-19-7.18-19.4-18.74-.39-11.35-.14-22.72-.14-34.08,0-42.92-.1-85.85,.07-128.77,.07-16.99,12.69-26.26,27.53-20.49,9.11,3.54,12.4,10.92,12.38,20.27-.05,26.51-.02,53.02-.02,79.54Z"/>
    <path class="d" d="M437.57,1245.86c-2.3-11.76,11.96-23.29,22.37-22.86,13.99,.58,23.99,10.03,23.8,23.74-.19,13.44-9.97,22.75-23.68,22.54-13.79-.21-22.55-9.33-22.49-23.42Z"/>
  </g>
</svg>