<?xml version="1.0" encoding="UTF-8"?>
<svg id="b" data-name="Camada 2" xmlns="http://www.w3.org/2000/svg" viewBox="0 0 1702.16 1854.75">
  <g id="c" data-name="Camada 1">
    <path class="d" d="M0,559.61c2.99-14.06,5.17-28.35,9.11-42.14,12.04-42.18,37.48-75.65,69.17-105.08,32.3-30,71.61-48.95,109.34-70.3,79.69-45.09,159.16-90.6,239.78-133.98,105.59-56.81,211.97-112.18,318.54-167.15,27.56-14.22,57.14-24.5,85.69-36.83,13.92-6.01,27.64-5.18,41.09,.66,36.01,15.64,72.61,30.13,107.63,47.76,73.83,37.17,147.3,75.12,219.99,114.46,91.29,49.41,181.8,100.26,272.34,151.03,42.23,23.68,85.14,46.59,125.23,73.57,49.65,33.41,85.4,78.9,99.29,138.75,3.04,13.08,4.7,26.78,4.72,40.2,.28,237.7,.29,475.4,.11,713.09-.03,37.85-14.14,71.15-35.81,101.55-25.92,36.35-59.88,62.95-98.51,84.99-97.27,55.51-193.25,113.32-290.86,168.21-102.83,57.82-206.73,113.74-310.65,169.59-27.9,15-57.58,26.7-86.4,39.98-18.13,8.36-36.32,9.43-54.62,.69-46.53-22.24-93.55-43.52-139.43-67.04-50.11-25.68-99.42-52.96-148.59-80.42-63.72-35.59-127.17-71.69-190.36-108.21-80.1-46.3-160.62-91.95-239.43-140.38-50.23-30.86-85.82-75.37-102.19-133.34C2.72,1310.6,1.69,1301.52,0,1292.62c0-244.34,0-488.68,0-733.01Zm1612.34,366.8c0-116.15,.14-232.3-.22-348.45-.04-11.79-1.54-24.06-5.04-35.27-12.55-40.15-41.27-67.24-76.2-87.85-43.88-25.89-88.52-50.48-132.93-75.46-52.64-29.61-105.22-59.33-158.13-88.44-49.34-27.15-98.98-53.75-148.68-80.24-76.61-40.84-153.02-82.11-233.3-115.49-3.78-1.57-9.42-1.49-13.16,.16-26.17,11.5-52.42,22.92-77.98,35.69-50.11,25.02-100.07,50.37-149.57,76.58-56.71,30.03-112.91,61.04-169.23,91.82-36.71,20.07-73.31,40.35-109.8,60.83-41.97,23.55-83.86,47.24-125.59,71.21-26.13,15.01-53.56,28.08-75.72,49.28-27.06,25.89-46.35,55.45-46.34,94.64,.04,234.83,.01,469.66,.06,704.48,0,4.07,.37,8.19,1.11,12.19,5.34,29.17,22.48,51.78,44.49,69.34,21.72,17.33,46.18,31.41,70.18,45.66,54.64,32.42,109.65,64.24,164.69,95.99,56.39,32.54,112.81,65.03,169.56,96.94,47.99,26.98,96.09,53.8,144.82,79.38,52.3,27.45,105.33,53.5,158.27,79.7,4.1,2.03,10.76,2.18,14.9,.29,29.14-13.32,58.46-26.41,86.73-41.44,66.12-35.12,131.83-71.01,197.42-107.12,45.74-25.18,91.21-50.87,136.43-76.98,76.26-44.05,152.25-88.58,228.3-132.99,25.5-14.89,51.92-28.34,71.96-51.17,20.35-23.18,33.72-47.88,33.41-80.51-1.08-114.25-.42-228.51-.42-342.77Z"/>
    <g>
      <path class="d" d="M468.46,961.67c-3.88,.96-7.51,1.85-11.4,2.81-3.15-11.32-6.21-22.27-9.25-33.22-5.21-18.81-9.94-37.77-15.85-56.36-2.16-6.79-6.92-12.82-10.85-18.97-13.21-20.64-26.58-41.17-39.87-61.76-.48-.74-.82-1.58-1.41-2.72,8.28-5.33,16.37-10.61,24.56-15.74,.85-.53,2.3-.45,3.39-.22,42.52,9.12,85.03,18.29,127.54,27.46,.35,.08,.68,.28,1.95,.83-13.91,9-27.31,17.66-41.32,26.72,3.32,1.93,6.08,3.55,8.85,5.14,1.93,1.11,4.1,1.93,5.77,3.34,8.86,7.44,18.37,7.91,28.75,3.53,4.14-1.75,8.69-2.5,14.07-3.99-3.73,6.69-6.9,12.37-10.41,18.67,19.13,10.84,38.08,21.58,57.41,32.53,1.52-2.61,2.91-4.93,4.24-7.27,12.41-21.88,24.85-43.75,37.17-65.68,1.33-2.36,2.95-3.63,5.55-4.34,22.75-6.2,45.46-12.53,68.18-18.82,1.12-.31,2.26-.55,4.54-1.09-22.33,39.4-44.2,78.01-66.66,117.64,2.54-.63,4.1-.98,5.64-1.4,26.89-7.43,53.77-14.91,80.69-22.23,2.79-.76,4.46-2.2,5.84-4.64,20.87-36.97,41.78-73.92,62.82-110.78,1.1-1.92,3.28-3.89,5.35-4.48,23.17-6.62,46.42-12.98,69.65-19.4,.72-.2,1.48-.27,3.2-.58-22.28,39.33-44.17,77.95-66.62,117.58,8.66-2.37,16.19-4.42,23.72-6.5,21.09-5.82,42.19-11.58,63.22-17.6,1.95-.56,4.01-2.44,5.05-4.26,21.19-37.09,42.2-74.28,63.39-111.38,.97-1.7,2.96-3.39,4.8-3.91,22.55-6.41,45.17-12.6,67.77-18.83,1.46-.4,2.94-.72,5.4-1.32-22.37,39.48-44.23,78.06-66.66,117.64,6.13-1.64,11.24-2.96,16.33-4.37,23.36-6.46,46.73-12.87,70.03-19.52,2.09-.6,4.42-2.38,5.49-4.26,19.03-33.34,37.89-66.78,56.79-100.19,.9-1.6,2.17-3.04,2.78-4.73,2.69-7.44,7.97-11.08,15.67-12.76,11.1-2.42,21.98-5.83,33.49-8.96,1.69,6.03,3.31,11.77,4.9,17.51,6.37,22.98,12.79,45.94,19.08,68.94,1.72,6.29,2.62,5.42-4.38,7.43-1.61,.46-3.21,.92-5.25,1.51,1.19,4.46,2.26,8.61,3.4,12.74,29.57,106.81,59.15,213.61,88.74,320.41,9.3,33.59,18.62,67.17,27.91,100.76,3.85,13.91-1.69,23.69-15.58,27.53-89.39,24.71-178.78,49.4-268.16,74.12-107.56,29.75-215.11,59.53-322.67,89.29-33.2,9.19-66.42,18.34-99.63,27.5-12.93,3.57-23.06-2.02-26.62-14.86-21.18-76.37-42.32-152.76-63.48-229.14-18.61-67.16-37.22-134.32-55.84-201.48-.34-1.23-.76-2.44-1.19-3.84Zm316.19,226.48c76.09-21.04,151.62-41.93,227.35-62.87,6.35,21.11,11.17,42.13,17.95,62.56,.4-.02,.81-.05,1.21-.07,.94-1.74,1.88-3.48,2.81-5.21,.9,.48,1.82,.97,2.74,1.46,.33-1.19,.92-2.39,.91-3.57-.01-1.41-.48-2.83-.86-4.22-2.92-10.61-5.87-21.21-8.8-31.81-1.98-7.17-3.95-14.34-6.02-21.88,70.43-19.49,140.51-38.88,210.87-58.35-.97-3.47-1.8-6.44-2.71-9.71-1.99,.53-3.61,.94-5.22,1.38-33.45,9.25-66.89,18.5-100.34,27.75-79.02,21.84-158.04,43.66-237.06,65.51-81.92,22.66-163.84,45.34-245.75,68.02-13.13,3.63-26.23,7.36-39.39,10.86-2.72,.72-3.44,1.79-2.44,4.38,.74,1.91,1.15,3.95,1.83,6.36,57.84-15.99,115.31-31.88,173.08-47.85,5.89,21.2,11.62,41.83,17.45,62.85,3.44-1.01,6.36-1.87,9.65-2.85-5.78-21.01-11.44-41.57-17.27-62.74Zm-230.06-119.62c210.53-58.23,420.75-116.37,631.17-174.56-1.07-3.61-1.94-6.56-2.88-9.75-210.49,58.22-420.52,116.3-630.95,174.5,.9,3.33,1.71,6.31,2.66,9.81Zm651.98-99.23c-210.61,58.25-420.61,116.33-631.05,174.54,.89,3.37,1.7,6.44,2.6,9.81,210.63-58.26,420.71-116.36,631.18-174.57-.95-3.4-1.77-6.37-2.72-9.78Zm-747.15-137.4c.11-5.62-4.17-10.09-9.73-10.14-5.36-.05-9.78,4.21-9.91,9.56-.14,5.6,4.16,10.06,9.74,10.1,5.43,.05,9.8-4.16,9.9-9.53Zm29.31,105.62c-.04-5.46-4.23-9.65-9.7-9.69-5.59-.04-10,4.35-9.93,9.9,.07,5.4,4.4,9.72,9.73,9.73,5.61,0,9.93-4.34,9.9-9.94Zm93.48-38.15c-5.43-.08-9.63,4.08-9.79,9.68-.15,5.19,4.36,9.82,9.63,9.91,5.36,.08,9.81-4.19,9.99-9.57,.18-5.57-4.1-9.93-9.83-10.02Z"/>
      <path class="d" d="M920.02,442.84c11.68-7.54,26.68-17.22,42.05-27.13,41.97-27.08,97.94-15.17,125.24,26.66,.16,.25,.32,.5,.48,.74,1.99,3.05,1.74,4.5-1.39,6.43-10.69,6.63-21.15,13.61-31.81,20.3-1.38,.86-3.47,1.38-5.02,1.05-42.02-8.94-84.02-18-126.01-27.05-.88-.19-1.74-.49-3.54-1Z"/>
      <path class="d" d="M484.64,723.86c5.62-3.65,10.86-7.07,16.12-10.46,15.62-10.09,31.21-20.23,46.93-30.17,1.67-1.06,4.25-1.64,6.15-1.23,41.76,8.85,83.48,17.88,125.21,26.88,.97,.21,1.93,.49,3.87,.98-3,1.93-5.24,3.37-7.48,4.81-18.71,12.05-37.39,24.16-56.19,36.08-1.67,1.06-4.27,1.62-6.18,1.21-42.4-8.98-84.77-18.12-127.14-27.24-.22-.05-.41-.26-1.29-.84Z"/>
      <path class="d" d="M774.87,536.57c6.92-4.5,13.35-8.71,19.81-12.88,14.41-9.3,28.79-18.66,43.31-27.79,1.76-1.11,4.46-1.74,6.45-1.31,41.88,8.85,83.73,17.89,125.58,26.9,.83,.18,1.65,.47,3.2,.92-3.62,2.37-6.63,4.37-9.67,6.33-18.04,11.65-36.07,23.32-54.18,34.86-1.37,.87-3.47,1.38-5.02,1.05-42.25-8.98-84.48-18.09-126.7-27.19-.74-.16-1.44-.46-2.79-.89Z"/>
      <path class="d" d="M827.9,616.21c-7.58,4.93-14.56,9.48-21.56,14-13.97,9.02-27.93,18.06-41.98,26.96-1.39,.88-3.47,1.58-4.99,1.25-42.52-9.02-85-18.17-127.49-27.32-.48-.1-.93-.38-1.95-.8,1.37-.98,2.33-1.73,3.36-2.4,19.8-12.79,39.57-25.63,59.46-38.28,1.77-1.12,4.49-1.76,6.5-1.33,42.38,8.98,84.73,18.14,127.08,27.27,.25,.05,.48,.19,1.57,.64Z"/>
      <path class="d" d="M488.72,937.51c.04,5.6-4.29,9.95-9.9,9.94-5.33,0-9.66-4.33-9.73-9.73-.07-5.55,4.33-9.94,9.93-9.9,5.47,.04,9.67,4.23,9.7,9.69Zm-5.63-1.06c-1.83-1.14-3.71-2.31-5.27-3.28-1.2,2.02-2.38,4.01-3.32,5.6,2,1.17,4.04,2.37,5.85,3.43,.92-1.95,1.87-3.94,2.73-5.75Z"/>
      <path class="d" d="M582.21,899.37c5.74,.08,10.02,4.44,9.83,10.02-.18,5.39-4.63,9.66-9.99,9.57-5.28-.08-9.78-4.71-9.63-9.91,.16-5.6,4.36-9.76,9.79-9.68Zm3.24,12.89v-6.34h-6.36v6.34h6.36Z"/>
      <path class="d" d="M452.3,835.55c-1.92-.44-4.05-.92-6.27-1.43,.24-1.62,.58-3.89,.92-6.21,1.65,.27,3.8,.62,6.27,1.02-.26,1.86-.61,4.33-.93,6.61Z"/>
      <path class="d" d="M585.45,912.26h-6.36v-6.34h6.36v6.34Z"/>
      <path class="d" d="M481.96,940.48h-6.36v-6.34h6.36v6.34Z"/>
    </g>
  </g>
</svg>