<?xml version="1.0" encoding="UTF-8"?>
<svg id="b" data-name="Camada 2" xmlns="http://www.w3.org/2000/svg" viewBox="0 0 66.53 25">
  <defs>
    <style>
      .d {
        fill: aqua;
      }

      .e {
        fill: #4d4d4d;
      }
    </style>
  </defs>
  <g id="c" data-name="Camada 1">
    <g>
      <path class="e" d="M24.11,0c-1.07,0-1.94,.87-1.94,1.94v.32h-5.73c-4.51,0-8.35,3-9.63,7.1H3.19c-1.76,0-3.19,1.43-3.19,3.19H0c0,1.76,1.43,3.19,3.19,3.19h3.78c1.4,3.89,5.13,6.69,9.49,6.69h5.73v.65c0,1.07,.87,1.94,1.94,1.94s1.94-.87,1.94-1.94V1.94c0-1.07-.87-1.94-1.94-1.94Z"/>
      <path class="d" d="M63.35,9.35h-5.06c-1.33-4.02-5.13-6.94-9.57-6.94h-6.37v-.48c0-1.07-.87-1.94-1.94-1.94s-1.94,.87-1.94,1.94v2.26h-7.04c-.57,0-1.03,.46-1.03,1.03v.53c0,.57,.46,1.03,1.03,1.03h7.04v9.84h-7.04c-.57,0-1.03,.46-1.03,1.03v.53c0,.57,.46,1.03,1.03,1.03h7.04v3.87c0,1.07,.87,1.94,1.94,1.94s1.94-.87,1.94-1.94v-.48h6.37c4.42,0,8.19-2.88,9.54-6.85h5.09c1.76,0,3.19-1.43,3.19-3.19h0c0-1.76-1.43-3.19-3.19-3.19Zm-6.33,3.55c-.07,.07-.1,.18-.14,.28-.03,.08-.23,.17-.32,.15-.13-.03-.24-.02-.34,.03-.07-.13-.16-.22-.33-.21-.05,0-.11-.02-.15-.05-.08-.06-.14-.05-.2,.02-.03,.03-.05,.07-.09,.1-.05,.03-.1,.05-.15,.08-.02,0-.05,0-.07,.01-.24,.12-.42,.01-.6-.14-.07-.06-.14-.04-.19,.04-.01,.03-.02,.05-.03,.09-.05-.04-.1-.07-.15-.1-.05-.04-.11-.04-.15,.02-.06,.09-.12,.06-.19,.02-.07-.05-.16-.08-.23-.14-.08-.05-.15-.11-.22-.18-.19-.21-.44-.33-.69-.42-.29-.11-.57-.24-.82-.44-.01,0-.02-.02-.04-.02-.18-.01-.35-.02-.53-.03-.06,0-.12,.01-.18,.02-.02,0-.05-.01-.07,0-.21,.09-.36-.08-.53-.14-.06-.02-.13-.05-.18-.04-.22,.04-.43,.09-.64,.16-.13,.04-.23,.13-.25,.28,0,.07-.07,.09-.11,.07-.09-.05-.17,0-.25,0-.06,0-.12,0-.18,0,0-.01-.01-.02-.02-.03-.11,.15-.22,.3-.34,.45-.02,.03-.06,.06-.09,.07-.1,.02-.18,.06-.2,.17-.03,.17-.05,.34-.08,.51,0,.03-.03,.08-.06,.08-.12,.03-.15,.13-.18,.23-.04,.13-.1,.25-.12,.38-.04,.2-.1,.38-.28,.49-.02,.01-.01,.06-.02,.09,0,.02-.01,.05-.03,.07-.14,.11-.17,.29-.09,.44,.03,.06,.04,.13,.06,.2-.1,.06-.29-.12-.33,.14-.08-.17-.1-.18-.34-.11,0-.04,0-.08,.02-.12,.02-.09,.05-.17,.07-.26,.02-.1,0-.18-.08-.26-.06-.07-.11-.16-.14-.25-.06-.2-.16-.36-.36-.47-.12-.06-.19-.2-.19-.35,0-.11-.01-.22-.03-.33-.02-.08-.08-.14-.17-.16-.18-.04-.2-.07-.19-.25,0-.13,.01-.26,0-.38-.02-.09-.07-.18-.13-.24-.14-.12-.29-.25-.5-.2-.14,.03-.24-.01-.36-.1-.15-.12-.34-.19-.5-.29-.07-.04-.12-.1-.18-.14-.06-.05-.13-.09-.18-.14-.12-.13-.23-.27-.33-.41-.01-.02,0-.05,0-.08,0-.04,.02-.08,.01-.11-.08-.27,.05-.53,.03-.8,0-.1,.06-.22,.11-.32,.01-.03,.06-.04,.1-.05,.04-.02,.08-.03,.12-.04,0,0,0-.02,0-.03,0,0,0,0,0,0h0s0,0,0,0c.03,0,.05,.02,.09,.03,.02-.04,.03-.07,.05-.11,.06,.02,.11,.04,.16,.06,.12,.05,.19,.02,.24-.1,.03-.06,.06-.09,.13-.12s.13-.08,.19-.12c.07-.04,.15-.09,.22-.12,.02,0,.05,0,.08,0,.02,0,.04,.04,.05,.04,.15-.03,.27,.06,.41,.08,.06,0,.15-.02,.2-.06,.14-.11,.27-.22,.39-.35,.06-.06,.1-.09,.18-.07,.08,.02,.17,.03,.19,.13,.02,.09,.07,.14,.16,.15,.1,.01,.19,.08,.3,.04,.02,0,.08,.03,.1,.05,.07,.07,.13,.14,.19,.22,.06,.08,.1,.18,.22,.2,0,0,.02,.01,.03,.02,.06,.08,.12,.17,.19,.25,.02,.03,.05,.06,.08,.07,.17,.06,.31,.14,.35,.34,0,.03,.02,.06,.03,.08,.08,.19,.29,.22,.42,.05,.17-.2,.21-.22,.46-.14,.17,.06,.34,.05,.51,.01,.14-.03,.24-.12,.29-.26,.02-.06,.04-.08,.1-.05,.06,.02,.13,.02,.19,.02,.1,0,.2-.07,.29,.01,.03,.02,.05,.05,.06,.08,.04,.15,.2,.21,.32,.1,.06-.05,.1-.03,.17-.02,.27,.02,.44,.25,.69,.31,.02,0,.04,.03,.06,.05,.07,.1,.14,.21,.21,.31,.11,.15,.28,.18,.45,.21,.03,0,.07,0,.1,.01,.14,.09,.27,.06,.39-.03,.1-.08,.21-.16,.32-.21,.06-.02,.17,0,.22,.06,.13,.13,.28,.1,.43,.07,.02,0,.04-.02,.06-.02,.39,.08,.78,.15,1.16,.25,.28,.07,.55,.19,.82,.29,.07,.03,.1,.08,.11,.16,0,.06,.04,.11,.07,.17,.03,.06,.06,.11,.08,.17,.04,.12,.07,.13,.18,.06,.06-.04,.11-.08,.17-.11,.03-.02,.09,0,.12,0,0,0,0,.06,0,.1-.02,.1,0,.12,.09,.11,.02,0,.04-.01,.05,0,.09,.08,.19,.16,.25,.25,.09,.13,.08,.26-.04,.39Z"/>
    </g>
  </g>
</svg>