<?xml version="1.0" encoding="UTF-8"?>
<svg id="b" data-name="Camada 2" xmlns="http://www.w3.org/2000/svg" viewBox="0 0 659.45 646.72">
  <defs>
    <style>
      .d {
        font-size: 126.82px;
        letter-spacing: .2em;
      }

      .d, .e {
        font-family: FONTSPRINGDEMO-DarwinProBlackRegular, 'FONTSPRING DEMO - Darwin Pro Black';
        font-style: oblique;
      }

      .e {
        font-size: 30px;
        letter-spacing: .2em;
      }

      .f {
        font-family: BebasNeue-Regular, 'Bebas Neue';
        font-size: 117.94px;
        letter-spacing: .2em;
      }
    </style>
  </defs>
  <g id="c" data-name="Camada 1">
    <path d="M390.85,478.31c12.42-2.36,23.69-4.18,34.8-6.71,8.21-1.87,16.35-4.28,24.29-7.12,50.7-18.12,78.17-55.27,86.81-107.34,4.4-26.51,5.93-53.1-1.18-79.52-4.68-17.38-12.5-33.17-24.17-46.86-3.38-3.96-4.28-7.23-2.74-12.4,7.69-25.76,5.34-51.28-3.77-76.22-.96-2.64-5.6-6.01-8.06-5.67-10.98,1.54-22.42,2.78-32.5,6.99-15.76,6.59-30.45,15.71-45.84,23.26-3.75,1.84-8.8,3.18-12.67,2.27-50.58-11.87-101.03-11.9-151.62,0-3.88,.91-9.19-.16-12.65-2.26-21.77-13.21-43.72-25.78-69.37-29.86-14.27-2.27-15.7-1.48-19.66,12.11-6.85,23.54-8.03,47.15-1.04,70.97,.76,2.59,.12,6.69-1.54,8.72-22.51,27.53-32.04,59.24-30.14,94.35,.79,14.64,2.43,29.4,5.43,43.74,11.58,55.26,46.35,88.59,100.14,102.92,11.29,3.01,22.95,4.59,34.44,6.82,2.59,.5,5.19,.95,8.94,1.63-11.07,11.98-16.53,25.38-19.29,40.15-.42,2.25-3.42,4.78-5.81,5.8-36.09,15.36-68.92,4.94-89.86-28.39-11.19-17.81-25.73-31.06-47.2-34.71-6.73-1.14-15.31-2.18-18.27,4.79-2.94,6.94,5.05,10.85,10.07,13.91,16.83,10.27,28.43,24.99,35.17,42.91,13.31,35.42,40.62,48.87,75.83,50.08,12.15,.42,24.38-1.58,37.36-2.53,.21,2.17,.6,4.51,.63,6.85,.26,16.09,.52,32.18,.64,48.27,.14,18.46-9.56,25.54-26.89,19.11-99.06-36.8-167.52-104.67-202.53-204.34C-44.94,259.17,60.2,60.08,243.89,11.37c189.93-50.36,378.24,71.62,411.02,266.25,26.55,157.69-65.34,313.51-216.24,366.68-.77,.27-1.55,.54-2.32,.79-15.13,4.9-24.98-1.93-24.95-17.75,.04-27.55,.46-55.1,.57-82.64,.03-6.53-.24-13.1-.87-19.6-1.67-17.23-7.17-32.96-20.24-46.78Z"/>
    <text class="e" transform="translate(271.29 333.86)"><tspan x="0" y="0">RAM95</tspan></text>
    <text class="f" transform="translate(187.15 358.27)"><tspan x="0" y="0">@</tspan></text>
    <text class="d" transform="translate(391.26 362.56)"><tspan x="0" y="0">0</tspan></text>
  </g>
</svg>