<?xml version="1.0" encoding="UTF-8"?>
<svg id="b" data-name="Camada 2" xmlns="http://www.w3.org/2000/svg" viewBox="0 0 45.48 22">
  <defs>
    <style>
      .d {
        fill: #ffc40d;
        box-shadow: 2px 2px 2px 2px #00ffff;
      }
    </style>
  </defs>
  <g id="c" data-name="Camada 1">
    <path class="d" d="M42.7,8.32h-3.18c-1.12-3.58-4.48-6.21-8.42-6.21h-5.01v-.28c0-.93-.76-1.69-1.69-1.69-.8,0-1.46,.55-1.64,1.29-.12-.81-.82-1.44-1.67-1.44-.93,0-1.69,.76-1.69,1.69v.28h-5.01c-3.94,0-7.3,2.62-8.42,6.21H2.79c-1.54,0-2.79,1.25-2.79,2.79H0c0,1.54,1.25,2.79,2.79,2.79h3.3c1.22,3.4,4.49,5.85,8.3,5.85h5.01v.56c0,.93,.76,1.69,1.69,1.69,.8,0,1.46-.55,1.64-1.29,.12,.81,.82,1.44,1.67,1.44,.93,0,1.69-.76,1.69-1.69v-.56h5.01c3.81,0,7.07-2.45,8.3-5.85h3.3c1.54,0,2.79-1.25,2.79-2.79h0c0-1.54-1.25-2.79-2.79-2.79Zm-5.4,3.87c-.13,.14-.18,.35-.27,.54-.07,.15-.45,.34-.63,.3-.25-.06-.46-.04-.66,.07-.14-.26-.32-.43-.64-.4-.09,0-.22-.04-.29-.11-.16-.12-.27-.09-.39,.04-.06,.07-.11,.14-.17,.19-.09,.06-.19,.1-.29,.15-.04,.02-.09,0-.13,.02-.46,.24-.82,.03-1.15-.26-.13-.11-.28-.07-.36,.08-.02,.05-.04,.11-.06,.17-.1-.07-.2-.13-.29-.2-.11-.07-.21-.07-.28,.04-.11,.17-.23,.12-.37,.03-.14-.09-.3-.16-.44-.26-.15-.11-.3-.22-.42-.36-.37-.4-.85-.63-1.34-.82-.56-.22-1.11-.47-1.58-.85-.02-.02-.05-.04-.07-.05-.34-.02-.68-.05-1.02-.06-.11,0-.23,.03-.34,.04-.04,0-.09-.02-.13,0-.42,.17-.7-.15-1.03-.28-.11-.04-.24-.09-.35-.07-.42,.08-.83,.18-1.24,.3-.25,.08-.44,.25-.48,.54-.02,.14-.13,.18-.22,.13-.17-.09-.32,0-.48,.01-.11,.01-.23,0-.34,0-.01-.02-.02-.04-.04-.06-.22,.29-.43,.58-.65,.87-.05,.06-.11,.12-.18,.13-.2,.03-.35,.13-.38,.32-.06,.32-.1,.65-.16,.98-.01,.06-.06,.15-.11,.16-.23,.07-.28,.24-.34,.44-.07,.25-.19,.49-.24,.74-.08,.38-.19,.73-.54,.96-.04,.02-.03,.12-.04,.18-.01,.05-.02,.1-.06,.13-.27,.21-.33,.56-.17,.86,.06,.11,.08,.24,.13,.39-.19,.11-.57-.24-.64,.27-.15-.34-.2-.35-.67-.21,.01-.09,.01-.16,.03-.23,.04-.17,.09-.34,.13-.5,.04-.2,0-.35-.15-.51-.12-.13-.21-.31-.26-.49-.13-.39-.31-.7-.69-.9-.24-.13-.36-.38-.37-.67,0-.21-.02-.43-.06-.63-.03-.16-.15-.27-.33-.3-.35-.07-.38-.13-.37-.48,0-.24,.03-.5-.02-.73-.03-.17-.13-.35-.26-.47-.27-.24-.56-.48-.96-.4-.27,.06-.47-.02-.69-.19-.29-.23-.65-.38-.97-.57-.13-.08-.24-.18-.36-.28-.12-.09-.25-.17-.35-.28-.23-.25-.44-.52-.65-.79-.02-.03,0-.1,0-.15,0-.07,.04-.15,.02-.21-.16-.52,.1-1.02,.06-1.54-.02-.2,.12-.42,.21-.63,.02-.05,.13-.07,.19-.1,.08-.03,.16-.05,.24-.08,0-.02,.01-.04,.02-.05,0,0,0,0,0,0h0s0,0,0,0c.05,.02,.11,.03,.17,.05,.03-.07,.06-.13,.1-.21,.11,.04,.21,.08,.31,.12,.24,.09,.38,.04,.47-.19,.05-.12,.12-.18,.26-.22,.14-.04,.25-.16,.37-.24,.14-.09,.28-.16,.43-.23,.04-.02,.1,0,.15,.02,.04,.02,.07,.09,.09,.08,.29-.05,.52,.12,.78,.16,.12,.02,.28-.04,.38-.11,.27-.21,.52-.43,.76-.67,.11-.11,.19-.17,.35-.14,.16,.03,.32,.05,.36,.25,.03,.18,.14,.26,.31,.29,.19,.03,.36,.15,.58,.07,.05-.02,.15,.05,.2,.1,.13,.13,.25,.28,.37,.43,.12,.15,.2,.34,.42,.39,.02,0,.04,.02,.05,.04,.12,.16,.24,.33,.36,.49,.04,.05,.09,.11,.16,.13,.33,.11,.6,.27,.67,.65,0,.06,.04,.11,.07,.16,.16,.38,.55,.43,.82,.1,.32-.4,.4-.43,.88-.26,.33,.12,.65,.1,.98,.02,.28-.06,.47-.23,.56-.5,.04-.11,.07-.15,.2-.1,.11,.04,.25,.05,.37,.04,.19-.01,.38-.13,.56,.02,.05,.04,.11,.1,.12,.16,.07,.28,.39,.4,.61,.2,.12-.1,.2-.06,.33-.05,.52,.05,.85,.49,1.33,.61,.04,0,.08,.06,.11,.1,.14,.2,.26,.41,.41,.6,.22,.28,.55,.36,.88,.41,.06,.01,.14,0,.19,.03,.27,.17,.52,.12,.76-.06,.2-.15,.4-.32,.63-.41,.11-.05,.33,.02,.42,.11,.26,.25,.54,.2,.83,.14,.04,0,.08-.04,.12-.04,.75,.15,1.5,.28,2.24,.48,.54,.14,1.06,.37,1.58,.56,.14,.05,.2,.15,.2,.32,0,.11,.08,.21,.13,.32,.05,.11,.12,.21,.16,.32,.08,.23,.13,.26,.34,.12,.11-.07,.21-.16,.32-.22,.07-.03,.16-.02,.24,0,.02,0,.02,.13,0,.19-.04,.19,0,.24,.18,.21,.03,0,.09-.02,.1,0,.17,.16,.36,.3,.49,.49,.16,.25,.16,.51-.08,.76Z"/>
  </g>
</svg>