<?xml version="1.0" encoding="UTF-8"?>
<svg fill="#00ffff" id="b" data-name="Camada 2" xmlns="http://www.w3.org/2000/svg" viewBox="0 0 1278.91 1184.69">
  <g id="c" data-name="Camada 1">
    <path d="M563.76,234.03c-.05,.19-.1,.38-.16,.57-.82,.27-1.66,.52-2.47,.83-.71,.28-1.79,.47-2.02,1-.93,2.12-2.4,4.42-2.22,6.53,.47,5.43-2.31,10.68-.6,16.11,.21,.66-.16,1.49-.23,2.24-.05,.52-.29,1.23-.04,1.54,2.19,2.79,4.39,5.58,6.76,8.22,1.02,1.14,2.44,1.94,3.67,2.9,1.24,.96,2.38,2.08,3.72,2.88,3.36,2.02,7.07,3.56,10.14,5.94,2.31,1.79,4.33,2.64,7.2,2.03,4.19-.89,7.27,1.62,10.06,4.14,1.32,1.19,2.35,3.12,2.69,4.87,.48,2.47,.28,5.09,.2,7.64-.12,3.72,.2,4.29,3.89,5.06,1.86,.39,3.11,1.47,3.46,3.18,.45,2.15,.58,4.39,.67,6.59,.13,3.03,1.42,5.7,3.88,7.01,3.99,2.13,5.87,5.41,7.18,9.44,.59,1.81,1.46,3.74,2.76,5.07,1.61,1.63,2.04,3.28,1.58,5.32-.39,1.77-.95,3.5-1.37,5.27-.18,.75-.2,1.54-.31,2.44,4.86-1.49,5.43-1.35,6.96,2.15,.75-5.27,4.64-1.6,6.66-2.78-.47-1.5-.69-2.87-1.31-4.03-1.65-3.15-.96-6.78,1.81-8.96,.34-.27,.46-.85,.59-1.32,.18-.64,.06-1.65,.45-1.9,3.68-2.35,4.84-5.99,5.65-9.99,.53-2.62,1.72-5.11,2.47-7.7,.59-2.03,1.2-3.86,3.55-4.56,.53-.16,1.05-1.07,1.17-1.71,.61-3.39,1-6.83,1.66-10.21,.4-2.08,1.92-3.06,4.02-3.39,.69-.11,1.42-.78,1.89-1.39,2.31-2.99,4.53-6.05,6.79-9.08,.13,.22,.26,.43,.39,.65,1.19,0,2.4,.11,3.57-.03,1.67-.2,3.23-1.11,5.03-.14,.99,.53,2.14,.09,2.31-1.34,.36-3.04,2.36-4.81,4.98-5.61,4.25-1.3,8.6-2.29,12.96-3.17,1.14-.23,2.51,.32,3.68,.76,3.5,1.33,6.43,4.63,10.77,2.9,.38-.15,.9,.11,1.35,.06,1.19-.12,2.38-.45,3.56-.42,3.56,.12,7.12,.36,10.68,.59,.26,.02,.52,.29,.76,.48,4.98,3.94,10.64,6.51,16.53,8.83,5.09,2.01,10.09,4.4,13.95,8.58,1.29,1.4,2.82,2.6,4.38,3.71,1.45,1.03,3.11,1.76,4.6,2.74,1.43,.94,2.67,1.41,3.86-.32,.8-1.16,1.86-1.14,2.97-.41,.98,.66,1.95,1.32,3.02,2.04,.25-.66,.41-1.24,.67-1.77,.81-1.62,2.39-2.02,3.74-.86,3.54,3.06,7.25,5.23,12.06,2.76,.38-.19,.93-.05,1.33-.22,1.05-.45,2.13-.88,3.06-1.53,.72-.51,1.22-1.33,1.82-2.01,1.25-1.38,2.49-1.71,4.12-.41,.82,.65,2.09,1.21,3.08,1.11,3.4-.33,5.28,1.47,6.71,4.15q3-1.61,6.85-.69c1.79,.43,5.85-1.56,6.53-3.1,.84-1.91,1.4-4.15,2.77-5.59,2.5-2.63,2.53-5.34,.81-7.97-1.28-1.97-3.32-3.46-5.08-5.11-.18-.17-.72,.03-1.08,.09-1.94,.3-2.34-.21-1.89-2.2,.15-.65,.17-1.9-.03-1.96-.79-.23-1.81-.38-2.51-.06-1.22,.56-2.25,1.51-3.38,2.26-2.15,1.42-2.72,1.15-3.54-1.25-.4-1.17-1.14-2.21-1.67-3.34-.52-1.1-1.35-2.22-1.36-3.34-.02-1.72-.63-2.77-2.13-3.33-5.48-2.01-10.88-4.39-16.51-5.87-7.71-2.03-15.6-3.37-23.42-4.97-.36-.07-.79,.3-1.21,.38-3.05,.59-5.96,1.13-8.64-1.46-.99-.96-3.26-1.63-4.42-1.16-2.37,.97-4.43,2.74-6.54,4.29-2.54,1.87-5.1,2.4-7.94,.66-.52-.32-1.3-.18-1.95-.3-3.45-.61-6.89-1.36-9.19-4.32-1.56-2.01-2.85-4.22-4.3-6.31-.29-.41-.7-.91-1.15-1.01-5.03-1.2-8.44-5.87-13.92-6.35-1.36-.12-2.18-.6-3.4,.49-2.34,2.09-5.66,.85-6.42-2.12-.16-.64-.73-1.26-1.26-1.71-1.86-1.6-3.88-.37-5.85-.26-1.29,.07-2.69,.04-3.87-.4-1.32-.48-1.7-.15-2.1,1.05-.94,2.8-2.93,4.51-5.81,5.18-3.44,.8-6.79,.97-10.26-.25-5.03-1.77-5.85-1.39-9.2,2.75-2.74,3.38-6.91,2.86-8.53-1.07-.23-.56-.58-1.1-.68-1.68-.69-3.99-3.59-5.61-7-6.8-.63-.22-1.18-.84-1.62-1.4-1.3-1.68-2.51-3.42-3.77-5.13-.13-.17-.34-.35-.54-.4-2.26-.49-3.11-2.45-4.35-4.05-1.19-1.55-2.47-3.05-3.84-4.45-.55-.56-1.62-1.29-2.12-1.09-2.21,.87-4.03-.44-6.02-.72-1.75-.25-2.88-1.12-3.19-2.98-.36-2.08-2.03-2.26-3.74-2.61-1.67-.34-2.55,.29-3.68,1.43-2.48,2.5-5.14,4.86-7.93,7.02-1.05,.81-2.73,1.39-3.99,1.2-2.74-.41-5.19-2.25-8.19-1.7-.25,.05-.58-.69-.96-.85-.47-.19-1.13-.36-1.53-.17-1.53,.73-3.03,1.56-4.48,2.45-1.33,.81-2.48,2.1-3.9,2.52-1.42,.42-2.16,1.03-2.72,2.33-1.01,2.38-2.47,2.91-4.94,2-1.05-.39-2.07-.82-3.2-1.27-.38,.82-.68,1.47-1,2.18-.67-.21-1.24-.38-1.8-.56Z"/>
    <g>
      <path d="M693.01,704.46c-51.52-60.32-104.01-120.22-154.61-181.67-26.56-32.26-52.57-65.58-74.02-101.31-72.5-120.78-52.99-264.11,48.21-352.11C593.96-1.39,688.35-18.31,788.43,19.96c96.23,36.8,153.19,109.6,169.6,212.06,13.71,85.59-13.76,161.1-64.4,227.78-42.18,55.53-89.81,106.9-134.39,160.64-23.23,28-45.11,57.14-66.23,84.02Zm-3.43-275.11c86.3,1.03,158.29-68.8,159.82-155.02,1.53-86.45-69.83-160.09-156.32-161.32-84.65-1.2-158.43,70.07-159.22,153.8-.85,90.48,67.17,161.48,155.72,162.53Z"/>
      <path d="M619.12,676.51c-59.01,4.01-113.34,7.63-167.67,11.41-74.22,5.17-148.41,10.68-222.65,15.52-13.42,.87-13.06,9.91-15.3,19.03-11.32,46.1-41.68,74.69-87.15,82.89-43.19,7.79-80.03-8.32-106.39-44.33-35.07-47.93-22.51-118.5,26.45-151.86,49.82-33.94,120.37-21.88,150.65,29.43,12.99,22.02,25.66,26.73,49.88,24.6,88.58-7.82,177.42-12.69,266.16-18.75,15.24-1.04,31.23,.13,45.51-4.2,31.97-9.7,42.94,12.87,60.52,36.27Z"/>
      <path d="M758.92,681.53c5.46-7.33,9.68-12.4,13.23-17.9,8.67-13.41,19.15-16.33,35.37-12.41,81.13,19.61,162.68,37.46,243.92,56.64,13.3,3.14,19.88-.35,26.86-11.92,28.27-46.89,88.64-65.56,135.64-43.16,50.28,23.96,76.3,79.77,60.22,129.18-18.19,55.91-69.61,87.43-125.39,76.87-42.83-8.11-78.88-44.59-84.88-89.7-2.04-15.38-8.82-19.35-21.76-22.28-93.62-21.25-187.11-43.07-283.21-65.3Z"/>
      <path d="M679.18,746.72c14.16-3.16,25.63-5.72,39.28-8.76,6.45,37.56,13.02,75.36,19.41,113.19,5.76,34.09,11.42,68.19,16.94,102.32,1.53,9.46,5.01,13.73,16.08,15.62,50.29,8.58,83.25,40.9,91.8,87.2,8.3,44.96-10.12,87.64-48.28,111.87-49.82,31.64-117.29,16.46-149.2-33.56-31.51-49.38-18.2-116.53,31.93-147.23,17.72-10.86,20.34-21.9,17.03-39.98-12.19-66.62-23.35-133.42-35-200.67Z"/>
    </g>
  </g>
</svg>