<?xml version="1.0" encoding="UTF-8"?>
<svg fill="#00ffff" id="b" data-name="Camada 2" xmlns="http://www.w3.org/2000/svg" viewBox="0 0 1356.73 589.13">
  <defs>
    <style>
      .d {
        letter-spacing: 0em;
      }

      .e {
        letter-spacing: 0em;
      }

      .f {
        font-size: 17.83px;
      }

      .f, .g, .h {
        font-family: FONTSPRINGDEMO-DarwinProSemiBoldRegular, 'FONTSPRING DEMO - Darwin Pro SemiBold';
      }

      .i {
        letter-spacing: 0em;
      }

      .j {
        letter-spacing: -.01em;
      }

      .k {
        letter-spacing: 0em;
      }

      .l {
        letter-spacing: 0em;
      }

      .m {
        letter-spacing: 0em;
      }

      .g {
        font-size: 22.01px;
      }

      .h {
        font-size: 24.88px;
      }
    </style>
  </defs>
  <g id="c" data-name="Camada 1">
    <path d="M524.73,493.73h0c0,41.26-33.51,74.67-74.77,74.55-59.12-.18-133-1.52-145.14-1.52-46.67,0-76.57-16.04-105.74-80.21l-52.5-115.95c-18.23-1.46-36.46-4.38-51.77-8.02v196.89H0V49.01H188.14c99.9,0,163.34,63.44,163.34,148.76v25.52c0,78.03-48.13,123.24-107.92,140.01l48.13,99.9c10.94,23.33,25.52,29.17,41.57,29.17,9.48,0,184.18,3.54,191.47,1.35ZM94.8,279.44c23.33,5.83,52.5,10.21,79.48,10.21,59.07,0,83.86-32.81,83.86-74.38v-8.75c0-43.02-25.52-72.92-70-72.92H94.8v145.84Z"/>
    <path d="M867.04,49.01v510.45h0c-50.47,0-91.12-41.4-90.2-91.87l4.15-226.07-96.68,212.55c-5.96,13.11-19.04,21.53-33.44,21.53h0c-14.46,0-27.57-8.48-33.5-21.66l-95.26-211.69,4.99,241.17h0c.86,45.41-38.18,81.36-83.37,76.75l-6.94-.71V49.01h0c51.85,0,98.82,30.62,119.74,78.07l96.11,217.99L786.82,49.01h80.21Z"/>
    <path d="M1198.15,538.69c-95.6,35.83-186.74,4.58-223.6-93.75l-69.87-186.41c-36.6-97.65,11.55-181.11,107.15-216.94,60.77-22.78,109.51-21.57,160.29-8.68l-11.45,77.49c-40.62-6.58-72.54-8.63-115.56,7.49-48.48,18.17-67.61,62.72-47.65,115.98l63.21,168.66c20.99,55.99,64.6,74.69,111.71,57.03,43.7-16.38,66.41-38.91,92.7-70.57l59.56,50.88c-29.79,43.1-65.73,76.03-126.5,98.81Z"/>
    <text class="h" transform="translate(.32 585.14)"><tspan x="0" y="0">Ramil</tspan><tspan class="e" x="59.08" y="0">t</tspan><tspan x="68.19" y="0">on</tspan></text>
    <text class="g" transform="translate(786.32 42.71)"><tspan class="d" x="0" y="0">M</tspan><tspan x="16.04" y="0">on</tspan><tspan class="l" x="39.24" y="0">t</tspan><tspan x="47.3" y="0">ei</tspan><tspan class="i" x="63.48" y="0">r</tspan><tspan x="71" y="0">o</tspan></text>
    <text class="f" transform="translate(1270.57 384.18) rotate(39.43)"><tspan class="j" x="0" y="0">C</tspan><tspan class="m" x="9.06" y="0">on</tspan><tspan class="k" x="27.85" y="0">c</tspan><tspan x="35.65" y="0">eicao</tspan></text>
    <path d="M1069.41,260.62v-20.88l86.34-37.25v22.57l-59.54,25.11,59.54,25.11v22.57l-86.34-37.25Z"/>
    <path d="M1356.73,258.09v-20.88l-86.34-37.25v22.57l59.54,25.11-59.54,25.11v22.57l86.34-37.25Z"/>
    <path d="M1232.08,173.42h20.83l-60.51,153.47h-20.83l60.51-153.47Z"/>
    <path d="M77.6,132.6c-7.58-6.62-14.74-12.88-22.38-19.56,7.2-7.52,14.1-14.74,21.43-22.39,2.68,2.09,5.21,4.06,7.45,5.8,63.98-52.79,130.86-60.53,202.26-23.52-3.2-2.84-5.66-5.06-8.15-7.24-16.78-14.69-33.57-29.36-50.34-44.06-1.91-1.68-3.44-3.18-6.74-1.74-4.7,2.06-9.6,.17-12.24-3.89-2.38-3.65-1.96-8.4,1.05-11.94,3.23-3.79,8.55-5.11,12.99-3.21,4.09,1.74,6.79,6.39,5.73,10.75-.64,2.64-.94,4.53,1.46,6.6,21.38,18.5,42.61,37.17,63.89,55.78,.58,.5,1.27,.89,1.76,1.23,.59-.12,1.01-.08,1.21-.26,5.69-5.12,5.73-5.17,11.17-.49,5.46,4.69,10.82,9.48,16.05,14.08-.21,.76-.2,1.13-.38,1.36-4.78,5.9-4.83,5.95,.71,10.81,21.02,18.43,42.09,36.8,63.07,55.28,2.23,1.96,4.13,2.61,7.34,1.44,4.79-1.76,9.33,.16,11.75,4.12,2.33,3.8,1.65,9.08-1.57,12.33-3.64,3.67-8.68,4.63-13.13,2.5-4.05-1.94-5.96-6.47-5.29-11.03,.27-1.85,.03-4.53-1.18-5.6-20.66-18.34-41.51-36.49-62.33-54.68-.57-.5-1.26-.88-2.35-.96,3.34,4.84,6.88,9.56,10,14.54,21.08,33.72,26.96,70.56,18.07,110.25-5.29,23.63-16.14,45.06-32.22,64.15-2.98,3.53-2.94,5.59,.62,7.88,1.44,.93,2.64,2.2,4.55,3.83-7.06,7.41-14.04,14.74-21.56,22.62-5.53-4.77-10.93-9.22-16.08-13.93-7.44-6.79-7.5-4.35-.38-11.94,4.95-5.28,10.04-10.44,15.46-16.05,1.49,1.17,3,2.03,4.07,3.26,2.58,2.98,4.44,2.32,6.87-.71,21.04-26.26,32.58-55.46,33.72-87.77,1.23-34.73-9.46-65.32-31.41-91.79-.78-.94-1.74-1.73-2.87-2.85-2.23,1.93-4.28,3.7-6.72,5.81-6.86-5.99-13.64-11.79-20.19-17.81-.64-.59-.35-2.73,.26-3.78,.85-1.47,2.39-2.6,4.23-4.48-27.93-19.55-59.12-28.4-93.93-26.55-39.12,2.08-73.14,16.77-102.16,43.76,.98,1.05,1.47,1.64,2.03,2.17q5.94,5.57,.15,11.65c-5.01,5.23-10.08,10.42-15.72,16.25Z"/>
    <g>
      <path d="M316.98,73.37c8.48-4.08,16.86-8.11,25.24-12.14,7.9-3.8,15.81-7.59,23.7-11.41,1.46-.71,2.63-1.02,4.21,.14,2.31,1.69,5.1,1.26,7.04-.59,2-1.92,2.57-4.26,1.44-6.76-1.1-2.44-3.1-3.78-5.92-3.55-2.68,.22-5.01,1.99-5.22,4.75-.19,2.54-1.66,3.3-3.55,4.2-15.99,7.63-31.94,15.32-47.89,22.98-2.84-3.42-2.86-3.77,0-6.81,14.23-15.09,28.52-30.14,42.7-45.28,3.94-4.21,8.5-6.53,14.35-6.97,9.75-.74,19.46-1.95,29.18-3.06,1.76-.2,2.78,.05,3.63,1.82,4.73,9.88,9.56,19.72,14.48,29.51,.9,1.8,.65,2.9-.7,4.29-7.09,7.26-14.08,14.61-21.1,21.93-3.73,3.88-8.35,5.76-13.65,6.18-20.78,1.64-41.56,3.28-62.33,4.94-4.02,.32-4.02,.35-5.61-4.15Z"/>
      <path d="M425.78,40.97c-5.57-11.61-10.98-22.86-16.56-34.49,3.9-1.89,7.69-3.72,11.76-5.7,5.57,11.6,10.99,22.9,16.58,34.53-3.98,1.91-7.72,3.71-11.77,5.65Z"/>
    </g>
    <g>
      <path d="M650.28,190.84c-20.06-.18-40.14-4.72-58.63-15.62-3.28-1.94-4.59-4.35-4.65-7.93-.44-24.24,9.05-43.43,29-57.34,.87-.61,1.85-1.07,2.72-1.69,4.52-3.21,8.24-3.82,13.84-.48,13.56,8.08,27.64,7.1,40.92-1.6,2.11-1.38,3.72-1.88,6.08-.62,23.82,12.67,35.96,32.43,36.67,59.4,.14,5.47-1.82,8.82-6.71,11.49-18.14,9.9-37.52,14.31-59.24,14.4Z"/>
      <path d="M651.62,42.91c17.29,.03,31.16,13.97,31.09,31.26-.07,17.18-14.28,31.22-31.4,31.02-17.13-.19-30.91-14.08-30.91-31.16,0-17.28,13.92-31.16,31.22-31.13Z"/>
    </g>
  </g>
</svg>